<svg width="2839.15" xmlns="http://www.w3.org/2000/svg" height="2831.196" viewBox="232.354 234 2839.15 2831.196" fill="none"><path d="M358.000,234.000C274.667,234.000,233.000,234.000,233.000,234.000C233.000,234.000,231.017,355.826,234.000,359.000C616.180,765.609,832.982,898.344,1209.000,900.000C1663.000,902.000,2091.477,633.805,3053.000,359.000C3056.558,358.017,3053.000,234.000,3053.000,234.000C3053.000,234.000,3012.333,234.000,2931.000,234.000C1975.000,523.000,1605.484,737.053,1214.599,765.271C975.000,774.000,722.000,640.000,358.000,234.000ZM1596.000,1592.000C1597.000,1673.000,1595.000,1714.000,1595.000,1714.000C1595.000,1714.000,1640.000,1714.000,1719.000,1714.000C1949.000,1606.000,2148.000,1570.000,2261.000,1570.000C2670.000,1592.000,2937.000,1878.875,2937.000,2157.000C2869.000,2706.000,2149.000,2983.000,1258.000,2932.000C1218.000,2932.000,1148.000,2932.000,1148.000,2932.000C1148.000,2932.000,1148.000,3024.000,1148.000,3057.000C2172.000,3114.000,3047.000,2880.000,3071.000,2156.000C3088.000,1640.000,2672.000,1437.000,2264.000,1443.000C2006.000,1437.000,1751.469,1507.234,1596.000,1592.000Z" style="fill: rgb(0, 0, 0); fill-opacity: 1;" class="fills"/><g class="strokes"><g class="inner-stroke-shape"><defs><clipPath id="b"><use href="#a"/></clipPath><path d="M358.000,234.000C274.667,234.000,233.000,234.000,233.000,234.000C233.000,234.000,231.017,355.826,234.000,359.000C616.180,765.609,832.982,898.344,1209.000,900.000C1663.000,902.000,2091.477,633.805,3053.000,359.000C3056.558,358.017,3053.000,234.000,3053.000,234.000C3053.000,234.000,3012.333,234.000,2931.000,234.000C1975.000,523.000,1605.484,737.053,1214.599,765.271C975.000,774.000,722.000,640.000,358.000,234.000ZM1596.000,1592.000C1597.000,1673.000,1595.000,1714.000,1595.000,1714.000C1595.000,1714.000,1640.000,1714.000,1719.000,1714.000C1949.000,1606.000,2148.000,1570.000,2261.000,1570.000C2670.000,1592.000,2937.000,1878.875,2937.000,2157.000C2869.000,2706.000,2149.000,2983.000,1258.000,2932.000C1218.000,2932.000,1148.000,2932.000,1148.000,2932.000C1148.000,2932.000,1148.000,3024.000,1148.000,3057.000C2172.000,3114.000,3047.000,2880.000,3071.000,2156.000C3088.000,1640.000,2672.000,1437.000,2264.000,1443.000C2006.000,1437.000,1751.469,1507.234,1596.000,1592.000Z" id="a" style="fill: none; stroke-width: 4; stroke: rgb(0, 0, 0); stroke-opacity: 1;"/></defs><use href="#a" clip-path="url('#b')"/></g></g></svg>