<svg width="2831.669" xmlns="http://www.w3.org/2000/svg" height="2839.15" fill="none"><path d="M2831.196,125.646C2831.196,42.313,2831.196,0.646,2831.196,0.646C2831.196,0.646,2709.370,-1.337,2706.196,1.646C2299.586,383.826,2166.852,600.629,2165.196,976.646C2163.196,1430.646,2431.391,1859.123,2706.196,2820.646C2707.179,2824.204,2831.196,2820.646,2831.196,2820.646C2831.196,2820.646,2831.196,2779.979,2831.196,2698.646C2542.196,1742.646,2328.142,1373.130,2299.925,982.245C2291.196,742.646,2425.196,489.646,2831.196,125.646ZM1473.196,1363.646C1392.196,1364.646,1351.196,1362.646,1351.196,1362.646C1351.196,1362.646,1351.196,1407.646,1351.196,1486.646C1459.196,1716.646,1495.196,1915.646,1495.196,2028.646C1473.196,2437.646,1186.321,2704.646,908.196,2704.646C359.196,2636.646,82.196,1916.646,133.196,1025.646C133.196,985.646,133.196,915.646,133.196,915.646C133.196,915.646,41.196,915.646,8.196,915.646C-48.804,1939.646,185.196,2814.646,909.196,2838.646C1425.196,2855.646,1628.196,2439.646,1622.196,2031.646C1628.196,1773.646,1557.961,1519.115,1473.196,1363.646Z" style="fill: rgb(0, 0, 0); fill-opacity: 1;" class="fills"/><g class="strokes"><g class="inner-stroke-shape"><defs><clipPath id="b"><use href="#a"/></clipPath><path d="M2831.196,125.646C2831.196,42.313,2831.196,0.646,2831.196,0.646C2831.196,0.646,2709.370,-1.337,2706.196,1.646C2299.586,383.826,2166.852,600.629,2165.196,976.646C2163.196,1430.646,2431.391,1859.123,2706.196,2820.646C2707.179,2824.204,2831.196,2820.646,2831.196,2820.646C2831.196,2820.646,2831.196,2779.979,2831.196,2698.646C2542.196,1742.646,2328.142,1373.130,2299.925,982.245C2291.196,742.646,2425.196,489.646,2831.196,125.646ZM1473.196,1363.646C1392.196,1364.646,1351.196,1362.646,1351.196,1362.646C1351.196,1362.646,1351.196,1407.646,1351.196,1486.646C1459.196,1716.646,1495.196,1915.646,1495.196,2028.646C1473.196,2437.646,1186.321,2704.646,908.196,2704.646C359.196,2636.646,82.196,1916.646,133.196,1025.646C133.196,985.646,133.196,915.646,133.196,915.646C133.196,915.646,41.196,915.646,8.196,915.646C-48.804,1939.646,185.196,2814.646,909.196,2838.646C1425.196,2855.646,1628.196,2439.646,1622.196,2031.646C1628.196,1773.646,1557.961,1519.115,1473.196,1363.646Z" id="a" style="fill: none; stroke-width: 4; stroke: rgb(0, 0, 0); stroke-opacity: 1;"/></defs><use href="#a" clip-path="url('#b')"/></g></g><path d="M276.669,2022.977L401.669,2022.977L1031.669,133.977L1031.669,9.977L906.669,9.977L276.669,1901.977L276.669,2022.977ZM907.669,2829.977L1031.669,2829.977L1477.669,1489.977L1477.669,1366.977L1355.669,1366.977L907.669,2711.977L907.669,2829.977ZM1807.669,2829.977L1932.669,2829.977L2831.669,129.977L2831.669,9.977L2708.669,9.977L1807.669,2713.977L1807.669,2829.977Z" style="fill: rgb(0, 0, 0); fill-opacity: 1;" class="fills"/><g class="strokes"><g class="inner-stroke-shape"><defs><clipPath id="d"><use href="#c"/></clipPath><path d="M276.669,2022.977L401.669,2022.977L1031.669,133.977L1031.669,9.977L906.669,9.977L276.669,1901.977L276.669,2022.977ZM907.669,2829.977L1031.669,2829.977L1477.669,1489.977L1477.669,1366.977L1355.669,1366.977L907.669,2711.977L907.669,2829.977ZM1807.669,2829.977L1932.669,2829.977L2831.669,129.977L2831.669,9.977L2708.669,9.977L1807.669,2713.977L1807.669,2829.977Z" id="c" style="fill: none; stroke-width: 4; stroke: rgb(0, 0, 0); stroke-opacity: 1;"/></defs><use href="#c" clip-path="url('#d')"/></g></g></svg>