<svg width="2847.322" xmlns="http://www.w3.org/2000/svg" height="2839.15" fill="none"><path d="M2831.527,125.646C2831.527,42.313,2831.527,0.646,2831.527,0.646C2831.527,0.646,2709.701,-1.337,2706.527,1.646C2299.917,383.826,2167.183,600.629,2165.527,976.646C2163.527,1430.646,2431.722,1859.123,2706.527,2820.646C2707.510,2824.204,2831.527,2820.646,2831.527,2820.646C2831.527,2820.646,2831.527,2779.979,2831.527,2698.646C2542.527,1742.646,2328.473,1373.130,2300.256,982.245C2291.527,742.646,2425.527,489.646,2831.527,125.646ZM1473.527,1363.646C1392.527,1364.646,1351.527,1362.646,1351.527,1362.646C1351.527,1362.646,1351.527,1407.646,1351.527,1486.646C1459.527,1716.646,1495.527,1915.646,1495.527,2028.646C1473.527,2437.646,1186.652,2704.646,908.527,2704.646C359.527,2636.646,82.527,1916.646,133.527,1025.646C133.527,985.646,133.527,915.646,133.527,915.646C133.527,915.646,41.527,915.646,8.527,915.646C-48.473,1939.646,185.527,2814.646,909.527,2838.646C1425.527,2855.646,1628.527,2439.646,1622.527,2031.646C1628.527,1773.646,1558.292,1519.115,1473.527,1363.646Z" style="fill: rgb(0, 0, 0); fill-opacity: 1;" class="fills"/><g class="strokes"><g class="inner-stroke-shape"><defs><clipPath id="b"><use href="#a"/></clipPath><path d="M2831.527,125.646C2831.527,42.313,2831.527,0.646,2831.527,0.646C2831.527,0.646,2709.701,-1.337,2706.527,1.646C2299.917,383.826,2167.183,600.629,2165.527,976.646C2163.527,1430.646,2431.722,1859.123,2706.527,2820.646C2707.510,2824.204,2831.527,2820.646,2831.527,2820.646C2831.527,2820.646,2831.527,2779.979,2831.527,2698.646C2542.527,1742.646,2328.473,1373.130,2300.256,982.245C2291.527,742.646,2425.527,489.646,2831.527,125.646ZM1473.527,1363.646C1392.527,1364.646,1351.527,1362.646,1351.527,1362.646C1351.527,1362.646,1351.527,1407.646,1351.527,1486.646C1459.527,1716.646,1495.527,1915.646,1495.527,2028.646C1473.527,2437.646,1186.652,2704.646,908.527,2704.646C359.527,2636.646,82.527,1916.646,133.527,1025.646C133.527,985.646,133.527,915.646,133.527,915.646C133.527,915.646,41.527,915.646,8.527,915.646C-48.473,1939.646,185.527,2814.646,909.527,2838.646C1425.527,2855.646,1628.527,2439.646,1622.527,2031.646C1628.527,1773.646,1558.292,1519.115,1473.527,1363.646Z" id="a" style="fill: none; stroke-width: 4; stroke: rgb(0, 0, 0); stroke-opacity: 1;"/></defs><use href="#a" clip-path="url('#b')"/></g></g><path d="M0.000,1212.139C0.000,1268.139,0.000,1337.139,0.000,1337.139C0.000,1337.139,89.000,1337.139,117.000,1337.139C772.000,1329.139,311.000,475.139,710.000,384.139C800.000,390.139,963.000,595.139,1122.000,948.139C1452.000,1649.139,1833.000,2762.139,2205.000,2831.139C2253.000,2839.139,2280.719,2839.499,2323.000,2838.139C2348.827,2837.173,2370.000,2837.139,2407.000,2837.139C2661.000,2796.139,2737.000,2536.139,2800.057,2228.688C2887.000,1678.139,2826.500,544.639,2831.000,465.139C2822.500,465.139,2738.000,466.139,2706.500,465.139C2707.000,807.139,2724.027,1435.662,2715.000,1653.139C2693.000,2183.139,2608.000,2638.139,2322.000,2707.139C1786.000,2581.139,1368.000,672.139,886.000,287.139C830.604,242.891,757.284,252.305,706.000,251.139C454.375,245.420,392.000,391.139,384.000,699.139C377.269,958.285,343.375,1219.467,0.000,1212.139ZM0.000,1212.139" style="fill: rgb(0, 0, 0); fill-opacity: 1;" class="fills"/><g class="strokes"><g class="inner-stroke-shape"><defs><clipPath id="d"><use href="#c"/></clipPath><path d="M0.000,1212.139C0.000,1268.139,0.000,1337.139,0.000,1337.139C0.000,1337.139,89.000,1337.139,117.000,1337.139C772.000,1329.139,311.000,475.139,710.000,384.139C800.000,390.139,963.000,595.139,1122.000,948.139C1452.000,1649.139,1833.000,2762.139,2205.000,2831.139C2253.000,2839.139,2280.719,2839.499,2323.000,2838.139C2348.827,2837.173,2370.000,2837.139,2407.000,2837.139C2661.000,2796.139,2737.000,2536.139,2800.057,2228.688C2887.000,1678.139,2826.500,544.639,2831.000,465.139C2822.500,465.139,2738.000,466.139,2706.500,465.139C2707.000,807.139,2724.027,1435.662,2715.000,1653.139C2693.000,2183.139,2608.000,2638.139,2322.000,2707.139C1786.000,2581.139,1368.000,672.139,886.000,287.139C830.604,242.891,757.284,252.305,706.000,251.139C454.375,245.420,392.000,391.139,384.000,699.139C377.269,958.285,343.375,1219.467,0.000,1212.139ZM0.000,1212.139" id="c" style="fill: none; stroke-width: 4; stroke: rgb(0, 0, 0); stroke-opacity: 1;"/></defs><use href="#c" clip-path="url('#d')"/></g></g></svg>