<svg width="2831.196" xmlns="http://www.w3.org/2000/svg" height="2839.15" fill="none"><path d="M2831.196,125.646C2831.196,42.313,2831.196,0.646,2831.196,0.646C2831.196,0.646,2709.370,-1.337,2706.196,1.646C2299.586,383.826,2166.852,600.629,2165.196,976.646C2163.196,1430.646,2431.391,1859.123,2706.196,2820.646C2707.179,2824.204,2831.196,2820.646,2831.196,2820.646C2831.196,2820.646,2831.196,2779.979,2831.196,2698.646C2542.196,1742.646,2328.142,1373.130,2299.925,982.245C2291.196,742.646,2425.196,489.646,2831.196,125.646ZM1473.196,1363.646C1392.196,1364.646,1351.196,1362.646,1351.196,1362.646C1351.196,1362.646,1351.196,1407.646,1351.196,1486.646C1459.196,1716.646,1495.196,1915.646,1495.196,2028.646C1473.196,2437.646,1186.321,2704.646,908.196,2704.646C359.196,2636.646,82.196,1916.646,133.196,1025.646C133.196,985.646,133.196,915.646,133.196,915.646C133.196,915.646,41.196,915.646,8.196,915.646C-48.804,1939.646,185.196,2814.646,909.196,2838.646C1425.196,2855.646,1628.196,2439.646,1622.196,2031.646C1628.196,1773.646,1557.961,1519.115,1473.196,1363.646Z" style="fill: rgb(0, 0, 0); fill-opacity: 1;" class="fills"/><g class="strokes"><g class="inner-stroke-shape"><defs><clipPath id="b"><use href="#a"/></clipPath><path d="M2831.196,125.646C2831.196,42.313,2831.196,0.646,2831.196,0.646C2831.196,0.646,2709.370,-1.337,2706.196,1.646C2299.586,383.826,2166.852,600.629,2165.196,976.646C2163.196,1430.646,2431.391,1859.123,2706.196,2820.646C2707.179,2824.204,2831.196,2820.646,2831.196,2820.646C2831.196,2820.646,2831.196,2779.979,2831.196,2698.646C2542.196,1742.646,2328.142,1373.130,2299.925,982.245C2291.196,742.646,2425.196,489.646,2831.196,125.646ZM1473.196,1363.646C1392.196,1364.646,1351.196,1362.646,1351.196,1362.646C1351.196,1362.646,1351.196,1407.646,1351.196,1486.646C1459.196,1716.646,1495.196,1915.646,1495.196,2028.646C1473.196,2437.646,1186.321,2704.646,908.196,2704.646C359.196,2636.646,82.196,1916.646,133.196,1025.646C133.196,985.646,133.196,915.646,133.196,915.646C133.196,915.646,41.196,915.646,8.196,915.646C-48.804,1939.646,185.196,2814.646,909.196,2838.646C1425.196,2855.646,1628.196,2439.646,1622.196,2031.646C1628.196,1773.646,1557.961,1519.115,1473.196,1363.646Z" id="a" style="fill: none; stroke-width: 4; stroke: rgb(0, 0, 0); stroke-opacity: 1;"/></defs><use href="#a" clip-path="url('#b')"/></g></g><path d="M0.669,2838.977L124.669,2838.977C124.669,2838.977,1305.669,1593.977,2228.669,1551.977C2683.669,1605.977,2696.669,1894.977,2696.669,1894.977C2696.669,1894.977,2679.669,2383.977,1816.669,2404.977C1817.669,2450.977,1816.669,2528.977,1816.669,2528.977C1816.669,2528.977,1863.669,2528.977,1908.669,2528.977C2651.669,2536.977,2831.669,2126.977,2828.669,1965.977C2828.669,1915.320,2832.551,1879.813,2828.669,1833.977C2802.669,1526.977,2537.669,1425.977,2220.669,1425.977C1253.669,1382.977,0.669,2715.977,0.669,2715.977L0.669,2838.977ZM405.669,766.977C404.252,989.432,604.669,1112.977,729.669,1106.977C890.669,1112.977,1085.669,979.977,1077.669,761.977C1080.669,617.977,952.669,432.977,742.669,432.977C523.669,438.977,406.669,609.977,405.669,766.977ZM405.669,766.977M738.669,280.977C1047.669,277.977,1227.669,547.977,1230.669,761.977C1227.589,1097.019,961.669,1259.977,729.669,1259.977C530.669,1251.977,269.669,1099.977,250.669,770.977C264.669,490.977,460.669,296.977,738.669,280.977Z" style="fill: rgb(0, 0, 0); fill-opacity: 1;" class="fills"/><g class="strokes"><g class="inner-stroke-shape"><defs><clipPath id="d"><use href="#c"/></clipPath><path d="M0.669,2838.977L124.669,2838.977C124.669,2838.977,1305.669,1593.977,2228.669,1551.977C2683.669,1605.977,2696.669,1894.977,2696.669,1894.977C2696.669,1894.977,2679.669,2383.977,1816.669,2404.977C1817.669,2450.977,1816.669,2528.977,1816.669,2528.977C1816.669,2528.977,1863.669,2528.977,1908.669,2528.977C2651.669,2536.977,2831.669,2126.977,2828.669,1965.977C2828.669,1915.320,2832.551,1879.813,2828.669,1833.977C2802.669,1526.977,2537.669,1425.977,2220.669,1425.977C1253.669,1382.977,0.669,2715.977,0.669,2715.977L0.669,2838.977ZM405.669,766.977C404.252,989.432,604.669,1112.977,729.669,1106.977C890.669,1112.977,1085.669,979.977,1077.669,761.977C1080.669,617.977,952.669,432.977,742.669,432.977C523.669,438.977,406.669,609.977,405.669,766.977ZM405.669,766.977M738.669,280.977C1047.669,277.977,1227.669,547.977,1230.669,761.977C1227.589,1097.019,961.669,1259.977,729.669,1259.977C530.669,1251.977,269.669,1099.977,250.669,770.977C264.669,490.977,460.669,296.977,738.669,280.977Z" id="c" style="fill: none; stroke-width: 4; stroke: rgb(0, 0, 0); stroke-opacity: 1;"/></defs><use href="#c" clip-path="url('#d')"/></g></g></svg>