<svg width="2850" xmlns="http://www.w3.org/2000/svg" height="2839.15" fill="none"><path d="M2840.527,125.646C2840.527,42.313,2840.527,0.646,2840.527,0.646C2840.527,0.646,2718.701,-1.337,2715.527,1.646C2308.917,383.826,2176.183,600.629,2174.527,976.646C2172.527,1430.646,2440.722,1859.123,2715.527,2820.646C2716.510,2824.204,2840.527,2820.646,2840.527,2820.646C2840.527,2820.646,2840.527,2779.979,2840.527,2698.646C2551.527,1742.646,2337.473,1373.130,2309.256,982.245C2300.527,742.646,2434.527,489.646,2840.527,125.646ZM1482.527,1363.646C1401.527,1364.646,1360.527,1362.646,1360.527,1362.646C1360.527,1362.646,1360.527,1407.646,1360.527,1486.646C1468.527,1716.646,1504.527,1915.646,1504.527,2028.646C1482.527,2437.646,1195.652,2704.646,917.527,2704.646C368.527,2636.646,91.527,1916.646,142.527,1025.646C142.527,985.646,142.527,915.646,142.527,915.646C142.527,915.646,50.527,915.646,17.527,915.646C-39.473,1939.646,194.527,2814.646,918.527,2838.646C1434.527,2855.646,1637.527,2439.646,1631.527,2031.646C1637.527,1773.646,1567.292,1519.115,1482.527,1363.646Z" style="fill: rgb(0, 0, 0); fill-opacity: 1;" class="fills"/><g class="strokes"><g class="inner-stroke-shape"><defs><clipPath id="b"><use href="#a"/></clipPath><path d="M2840.527,125.646C2840.527,42.313,2840.527,0.646,2840.527,0.646C2840.527,0.646,2718.701,-1.337,2715.527,1.646C2308.917,383.826,2176.183,600.629,2174.527,976.646C2172.527,1430.646,2440.722,1859.123,2715.527,2820.646C2716.510,2824.204,2840.527,2820.646,2840.527,2820.646C2840.527,2820.646,2840.527,2779.979,2840.527,2698.646C2551.527,1742.646,2337.473,1373.130,2309.256,982.245C2300.527,742.646,2434.527,489.646,2840.527,125.646ZM1482.527,1363.646C1401.527,1364.646,1360.527,1362.646,1360.527,1362.646C1360.527,1362.646,1360.527,1407.646,1360.527,1486.646C1468.527,1716.646,1504.527,1915.646,1504.527,2028.646C1482.527,2437.646,1195.652,2704.646,917.527,2704.646C368.527,2636.646,91.527,1916.646,142.527,1025.646C142.527,985.646,142.527,915.646,142.527,915.646C142.527,915.646,50.527,915.646,17.527,915.646C-39.473,1939.646,194.527,2814.646,918.527,2838.646C1434.527,2855.646,1637.527,2439.646,1631.527,2031.646C1637.527,1773.646,1567.292,1519.115,1482.527,1363.646Z" id="a" style="fill: none; stroke-width: 4; stroke: rgb(0, 0, 0); stroke-opacity: 1;"/></defs><use href="#a" clip-path="url('#b')"/></g></g><path d="M0.000,1790.977L0.000,1940.977L2850.000,1940.977L2850.000,1790.977L0.000,1790.977ZM0.000,2239.977L0.000,2389.977L2850.000,2389.977L2850.000,2239.977L0.000,2239.977Z" style="fill: rgb(0, 0, 0); fill-opacity: 1;" class="fills"/><g class="strokes"><g class="inner-stroke-shape"><defs><clipPath id="d"><use href="#c"/></clipPath><path d="M0.000,1790.977L0.000,1940.977L2850.000,1940.977L2850.000,1790.977L0.000,1790.977ZM0.000,2239.977L0.000,2389.977L2850.000,2389.977L2850.000,2239.977L0.000,2239.977Z" id="c" style="fill: none; stroke-width: 4; stroke: rgb(0, 0, 0); stroke-opacity: 1;"/></defs><use href="#c" clip-path="url('#d')"/></g></g></svg>