<svg width="2823" xmlns="http://www.w3.org/2000/svg" height="2822" id="screenshot-da71b14d-9e54-80c3-8004-bc95aa15f09f" viewBox="290.5 139.5 2823 2822" xmlns:xlink="http://www.w3.org/1999/xlink" fill="none" version="1.1"><g id="shape-da71b14d-9e54-80c3-8004-bc95aa15f09f"><g class="fills" id="fills-da71b14d-9e54-80c3-8004-bc95aa15f09f"><path d="M298.5,139.5L298.5,264.5L2808.5,1098.5L294.5,1936.5L294.5,2062.5L1458.5,2448.5L290.5,2837.5L290.5,2961.5L414.5,2961.5L1762.5,2511.5L1762.5,2387.5L596.5,2000.5L3113.5,1160.5L3113.5,1038.5L419.5,139.5L298.5,139.5" style="fill: rgb(0, 0, 0); fill-opacity: 1;"/></g><g id="strokes-263aea2e-b586-8051-8006-881c5a5a5ff6-da71b14d-9e54-80c3-8004-bc95aa15f09f" class="strokes"><g class="inner-stroke-shape"><defs><clipPath id="inner-stroke-render-1-da71b14d-9e54-80c3-8004-bc95aa15f09f-0"><use href="#stroke-shape-render-1-da71b14d-9e54-80c3-8004-bc95aa15f09f-0"/></clipPath><path d="M298.5,139.5L298.5,264.5L2808.5,1098.5L294.5,1936.5L294.5,2062.5L1458.5,2448.5L290.5,2837.5L290.5,2961.5L414.5,2961.5L1762.5,2511.5L1762.5,2387.5L596.5,2000.5L3113.5,1160.5L3113.5,1038.5L419.5,139.5L298.5,139.5" id="stroke-shape-render-1-da71b14d-9e54-80c3-8004-bc95aa15f09f-0" style="fill: none; stroke-width: 4; stroke: rgb(0, 0, 0); stroke-opacity: 1;"/></defs><use href="#stroke-shape-render-1-da71b14d-9e54-80c3-8004-bc95aa15f09f-0" clip-path="url('#inner-stroke-render-1-da71b14d-9e54-80c3-8004-bc95aa15f09f-0')"/></g></g></g></svg>