<svg width="2839.65" xmlns="http://www.w3.org/2000/svg" height="2831.196" fill="none"><path d="M8.000,0.500L8.000,125.500L2518.000,959.500L4.000,1797.500L4.000,1923.500L1168.000,2309.500L0.000,2698.500L0.000,2822.500L124.000,2822.500L1472.000,2372.500L1472.000,2248.500L306.000,1861.500L2823.000,1021.500L2823.000,899.500L129.000,0.500L8.000,0.500Z" style="fill: rgb(0, 0, 0); fill-opacity: 1;" class="fills"/><g class="strokes"><g class="inner-stroke-shape"><defs><clipPath id="b"><use href="#a"/></clipPath><path d="M8.000,0.500L8.000,125.500L2518.000,959.500L4.000,1797.500L4.000,1923.500L1168.000,2309.500L0.000,2698.500L0.000,2822.500L124.000,2822.500L1472.000,2372.500L1472.000,2248.500L306.000,1861.500L2823.000,1021.500L2823.000,899.500L129.000,0.500L8.000,0.500Z" id="a" style="fill: none; stroke-width: 4; stroke: rgb(0, 0, 0); stroke-opacity: 1;"/></defs><use href="#a" clip-path="url('#b')"/></g></g><path d="M126.146,0.000C42.813,0.000,1.146,0.000,1.146,0.000C1.146,0.000,-0.837,121.826,2.146,125.000C384.326,531.609,601.129,664.344,977.146,666.000C1431.146,668.000,1859.623,399.805,2821.146,125.000C2824.704,124.017,2821.146,0.000,2821.146,0.000C2821.146,0.000,2780.479,0.000,2699.146,0.000C1743.146,289.000,1373.630,503.053,982.745,531.271C743.146,540.000,490.146,406.000,126.146,0.000ZM1364.146,1358.000C1365.146,1439.000,1363.146,1480.000,1363.146,1480.000C1363.146,1480.000,1408.146,1480.000,1487.146,1480.000C1717.146,1372.000,1916.146,1336.000,2029.146,1336.000C2438.146,1358.000,2705.146,1644.875,2705.146,1923.000C2637.146,2472.000,1917.146,2749.000,1026.146,2698.000C986.146,2698.000,916.146,2698.000,916.146,2698.000C916.146,2698.000,916.146,2790.000,916.146,2823.000C1940.146,2880.000,2815.146,2646.000,2839.146,1922.000C2856.146,1406.000,2440.146,1203.000,2032.146,1209.000C1774.146,1203.000,1519.615,1273.234,1364.146,1358.000Z" style="fill: rgb(0, 0, 0); fill-opacity: 1;" class="fills"/><g class="strokes"><g class="inner-stroke-shape"><defs><clipPath id="d"><use href="#c"/></clipPath><path d="M126.146,0.000C42.813,0.000,1.146,0.000,1.146,0.000C1.146,0.000,-0.837,121.826,2.146,125.000C384.326,531.609,601.129,664.344,977.146,666.000C1431.146,668.000,1859.623,399.805,2821.146,125.000C2824.704,124.017,2821.146,0.000,2821.146,0.000C2821.146,0.000,2780.479,0.000,2699.146,0.000C1743.146,289.000,1373.630,503.053,982.745,531.271C743.146,540.000,490.146,406.000,126.146,0.000ZM1364.146,1358.000C1365.146,1439.000,1363.146,1480.000,1363.146,1480.000C1363.146,1480.000,1408.146,1480.000,1487.146,1480.000C1717.146,1372.000,1916.146,1336.000,2029.146,1336.000C2438.146,1358.000,2705.146,1644.875,2705.146,1923.000C2637.146,2472.000,1917.146,2749.000,1026.146,2698.000C986.146,2698.000,916.146,2698.000,916.146,2698.000C916.146,2698.000,916.146,2790.000,916.146,2823.000C1940.146,2880.000,2815.146,2646.000,2839.146,1922.000C2856.146,1406.000,2440.146,1203.000,2032.146,1209.000C1774.146,1203.000,1519.615,1273.234,1364.146,1358.000Z" id="c" style="fill: none; stroke-width: 4; stroke: rgb(0, 0, 0); stroke-opacity: 1;"/></defs><use href="#c" clip-path="url('#d')"/></g></g></svg>