<svg width="2823" xmlns="http://www.w3.org/2000/svg" height="2823" fill="none"><path d="M8.000,0.000L8.000,125.000L2518.000,959.000L4.000,1797.000L4.000,1923.000L1168.000,2309.000L0.000,2698.000L0.000,2822.000L124.000,2822.000L1472.000,2372.000L1472.000,2248.000L306.000,1861.000L2823.000,1021.000L2823.000,899.000L129.000,0.000L8.000,0.000Z" style="fill: rgb(0, 0, 0); fill-opacity: 1;" class="fills"/><g class="strokes"><g class="inner-stroke-shape"><defs><clipPath id="b"><use href="#a"/></clipPath><path d="M8.000,0.000L8.000,125.000L2518.000,959.000L4.000,1797.000L4.000,1923.000L1168.000,2309.000L0.000,2698.000L0.000,2822.000L124.000,2822.000L1472.000,2372.000L1472.000,2248.000L306.000,1861.000L2823.000,1021.000L2823.000,899.000L129.000,0.000L8.000,0.000Z" id="a" style="fill: none; stroke-width: 4; stroke: rgb(0, 0, 0); stroke-opacity: 1;"/></defs><use href="#a" clip-path="url('#b')"/></g></g><path d="M0.000,2815.000L125.000,2815.000L959.000,305.000L1797.000,2819.000L1923.000,2819.000L2309.000,1655.000L2698.000,2823.000L2822.000,2823.000L2822.000,2699.000L2372.000,1351.000L2248.000,1351.000L1861.000,2517.000L1021.000,0.000L899.000,0.000L0.000,2694.000L0.000,2815.000Z" style="fill: rgb(0, 0, 0); fill-opacity: 1;" class="fills"/><g class="strokes"><g class="inner-stroke-shape"><defs><clipPath id="d"><use href="#c"/></clipPath><path d="M0.000,2815.000L125.000,2815.000L959.000,305.000L1797.000,2819.000L1923.000,2819.000L2309.000,1655.000L2698.000,2823.000L2822.000,2823.000L2822.000,2699.000L2372.000,1351.000L2248.000,1351.000L1861.000,2517.000L1021.000,0.000L899.000,0.000L0.000,2694.000L0.000,2815.000Z" id="c" style="fill: none; stroke-width: 4; stroke: rgb(0, 0, 0); stroke-opacity: 1;"/></defs><use href="#c" clip-path="url('#d')"/></g></g></svg>