<svg width="2823.5" xmlns="http://www.w3.org/2000/svg" height="2822.5" fill="none"><path d="M8.000,0.000L8.000,125.000L2518.000,959.000L4.000,1797.000L4.000,1923.000L1168.000,2309.000L0.000,2698.000L0.000,2822.000L124.000,2822.000L1472.000,2372.000L1472.000,2248.000L306.000,1861.000L2823.000,1021.000L2823.000,899.000L129.000,0.000L8.000,0.000Z" style="fill: rgb(0, 0, 0); fill-opacity: 1;" class="fills"/><g class="strokes"><g class="inner-stroke-shape"><defs><clipPath id="b"><use href="#a"/></clipPath><path d="M8.000,0.000L8.000,125.000L2518.000,959.000L4.000,1797.000L4.000,1923.000L1168.000,2309.000L0.000,2698.000L0.000,2822.000L124.000,2822.000L1472.000,2372.000L1472.000,2248.000L306.000,1861.000L2823.000,1021.000L2823.000,899.000L129.000,0.000L8.000,0.000Z" id="a" style="fill: none; stroke-width: 4; stroke: rgb(0, 0, 0); stroke-opacity: 1;"/></defs><use href="#a" clip-path="url('#b')"/></g></g><path d="M268.500,2015.500L393.500,2015.500L1023.500,126.500L1023.500,2.500L898.500,2.500L268.500,1894.500L268.500,2015.500ZM899.500,2822.500L1023.500,2822.500L1469.500,1482.500L1469.500,1359.500L1347.500,1359.500L899.500,2704.500L899.500,2822.500ZM1799.500,2822.500L1924.500,2822.500L2823.500,122.500L2823.500,2.500L2700.500,2.500L1799.500,2706.500L1799.500,2822.500Z" style="fill: rgb(0, 0, 0); fill-opacity: 1;" class="fills"/><g class="strokes"><g class="inner-stroke-shape"><defs><clipPath id="d"><use href="#c"/></clipPath><path d="M268.500,2015.500L393.500,2015.500L1023.500,126.500L1023.500,2.500L898.500,2.500L268.500,1894.500L268.500,2015.500ZM899.500,2822.500L1023.500,2822.500L1469.500,1482.500L1469.500,1359.500L1347.500,1359.500L899.500,2704.500L899.500,2822.500ZM1799.500,2822.500L1924.500,2822.500L2823.500,122.500L2823.500,2.500L2700.500,2.500L1799.500,2706.500L1799.500,2822.500Z" id="c" style="fill: none; stroke-width: 4; stroke: rgb(0, 0, 0); stroke-opacity: 1;"/></defs><use href="#c" clip-path="url('#d')"/></g></g></svg>