<svg width="2847.322" xmlns="http://www.w3.org/2000/svg" height="2822.271" fill="none"><path d="M20.500,0.000L20.500,125.000L2530.500,959.000L16.500,1797.000L16.500,1923.000L1180.500,2309.000L12.500,2698.000L12.500,2822.000L136.500,2822.000L1484.500,2372.000L1484.500,2248.000L318.500,1861.000L2835.500,1021.000L2835.500,899.000L141.500,0.000L20.500,0.000Z" style="fill: rgb(0, 0, 0); fill-opacity: 1;" class="fills"/><g class="strokes"><g class="inner-stroke-shape"><defs><clipPath id="b"><use href="#a"/></clipPath><path d="M20.500,0.000L20.500,125.000L2530.500,959.000L16.500,1797.000L16.500,1923.000L1180.500,2309.000L12.500,2698.000L12.500,2822.000L136.500,2822.000L1484.500,2372.000L1484.500,2248.000L318.500,1861.000L2835.500,1021.000L2835.500,899.000L141.500,0.000L20.500,0.000Z" id="a" style="fill: none; stroke-width: 4; stroke: rgb(0, 0, 0); stroke-opacity: 1;"/></defs><use href="#a" clip-path="url('#b')"/></g></g><path d="M0.000,1195.662C0.000,1251.662,0.000,1320.662,0.000,1320.662C0.000,1320.662,89.000,1320.662,117.000,1320.662C772.000,1312.662,311.000,458.662,710.000,367.662C800.000,373.662,963.000,578.662,1122.000,931.662C1452.000,1632.662,1833.000,2745.662,2205.000,2814.662C2253.000,2822.662,2280.719,2823.021,2323.000,2821.662C2348.827,2820.695,2370.000,2820.662,2407.000,2820.662C2661.000,2779.662,2737.000,2519.662,2800.057,2212.210C2887.000,1661.662,2826.500,528.162,2831.000,448.662C2822.500,448.662,2738.000,449.662,2706.500,448.662C2707.000,790.662,2724.027,1419.184,2715.000,1636.662C2693.000,2166.662,2608.000,2621.662,2322.000,2690.662C1786.000,2564.662,1368.000,655.662,886.000,270.662C830.604,226.414,757.284,235.827,706.000,234.662C454.375,228.943,392.000,374.662,384.000,682.662C377.269,941.808,343.375,1202.990,0.000,1195.662ZM0.000,1195.662" style="fill: rgb(0, 0, 0); fill-opacity: 1;" class="fills"/><g class="strokes"><g class="inner-stroke-shape"><defs><clipPath id="d"><use href="#c"/></clipPath><path d="M0.000,1195.662C0.000,1251.662,0.000,1320.662,0.000,1320.662C0.000,1320.662,89.000,1320.662,117.000,1320.662C772.000,1312.662,311.000,458.662,710.000,367.662C800.000,373.662,963.000,578.662,1122.000,931.662C1452.000,1632.662,1833.000,2745.662,2205.000,2814.662C2253.000,2822.662,2280.719,2823.021,2323.000,2821.662C2348.827,2820.695,2370.000,2820.662,2407.000,2820.662C2661.000,2779.662,2737.000,2519.662,2800.057,2212.210C2887.000,1661.662,2826.500,528.162,2831.000,448.662C2822.500,448.662,2738.000,449.662,2706.500,448.662C2707.000,790.662,2724.027,1419.184,2715.000,1636.662C2693.000,2166.662,2608.000,2621.662,2322.000,2690.662C1786.000,2564.662,1368.000,655.662,886.000,270.662C830.604,226.414,757.284,235.827,706.000,234.662C454.375,228.943,392.000,374.662,384.000,682.662C377.269,941.808,343.375,1202.990,0.000,1195.662ZM0.000,1195.662" id="c" style="fill: none; stroke-width: 4; stroke: rgb(0, 0, 0); stroke-opacity: 1;"/></defs><use href="#c" clip-path="url('#d')"/></g></g></svg>