<svg width="2830.225" xmlns="http://www.w3.org/2000/svg" height="2822.5" fill="none"><path d="M8.000,0.000L8.000,125.000L2518.000,959.000L4.000,1797.000L4.000,1923.000L1168.000,2309.000L0.000,2698.000L0.000,2822.000L124.000,2822.000L1472.000,2372.000L1472.000,2248.000L306.000,1861.000L2823.000,1021.000L2823.000,899.000L129.000,0.000L8.000,0.000Z" style="fill: rgb(0, 0, 0); fill-opacity: 1;" class="fills"/><g class="strokes"><g class="inner-stroke-shape"><defs><clipPath id="b"><use href="#a"/></clipPath><path d="M8.000,0.000L8.000,125.000L2518.000,959.000L4.000,1797.000L4.000,1923.000L1168.000,2309.000L0.000,2698.000L0.000,2822.000L124.000,2822.000L1472.000,2372.000L1472.000,2248.000L306.000,1861.000L2823.000,1021.000L2823.000,899.000L129.000,0.000L8.000,0.000Z" id="a" style="fill: none; stroke-width: 4; stroke: rgb(0, 0, 0); stroke-opacity: 1;"/></defs><use href="#a" clip-path="url('#b')"/></g></g><path d="M0.500,2822.500L124.500,2822.500C124.500,2822.500,1305.500,1577.500,2228.500,1535.500C2683.500,1589.500,2696.500,1878.500,2696.500,1878.500C2696.500,1878.500,2679.500,2367.500,1816.500,2388.500C1817.500,2434.500,1816.500,2512.500,1816.500,2512.500C1816.500,2512.500,1863.500,2512.500,1908.500,2512.500C2651.500,2520.500,2831.500,2110.500,2828.500,1949.500C2828.500,1898.843,2832.382,1863.336,2828.500,1817.500C2802.500,1510.500,2537.500,1409.500,2220.500,1409.500C1253.500,1366.500,0.500,2699.500,0.500,2699.500L0.500,2822.500ZM405.500,750.500C404.083,972.955,604.500,1096.500,729.500,1090.500C890.500,1096.500,1085.500,963.500,1077.500,745.500C1080.500,601.500,952.500,416.500,742.500,416.500C523.500,422.500,406.500,593.500,405.500,750.500ZM405.500,750.500M738.500,264.500C1047.500,261.500,1227.500,531.500,1230.500,745.500C1227.420,1080.542,961.500,1243.500,729.500,1243.500C530.500,1235.500,269.500,1083.500,250.500,754.500C264.500,474.500,460.500,280.500,738.500,264.500Z" style="fill: rgb(0, 0, 0); fill-opacity: 1;" class="fills"/><g class="strokes"><g class="inner-stroke-shape"><defs><clipPath id="d"><use href="#c"/></clipPath><path d="M0.500,2822.500L124.500,2822.500C124.500,2822.500,1305.500,1577.500,2228.500,1535.500C2683.500,1589.500,2696.500,1878.500,2696.500,1878.500C2696.500,1878.500,2679.500,2367.500,1816.500,2388.500C1817.500,2434.500,1816.500,2512.500,1816.500,2512.500C1816.500,2512.500,1863.500,2512.500,1908.500,2512.500C2651.500,2520.500,2831.500,2110.500,2828.500,1949.500C2828.500,1898.843,2832.382,1863.336,2828.500,1817.500C2802.500,1510.500,2537.500,1409.500,2220.500,1409.500C1253.500,1366.500,0.500,2699.500,0.500,2699.500L0.500,2822.500ZM405.500,750.500C404.083,972.955,604.500,1096.500,729.500,1090.500C890.500,1096.500,1085.500,963.500,1077.500,745.500C1080.500,601.500,952.500,416.500,742.500,416.500C523.500,422.500,406.500,593.500,405.500,750.500ZM405.500,750.500M738.500,264.500C1047.500,261.500,1227.500,531.500,1230.500,745.500C1227.420,1080.542,961.500,1243.500,729.500,1243.500C530.500,1235.500,269.500,1083.500,250.500,754.500C264.500,474.500,460.500,280.500,738.500,264.500Z" id="c" style="fill: none; stroke-width: 4; stroke: rgb(0, 0, 0); stroke-opacity: 1;"/></defs><use href="#c" clip-path="url('#d')"/></g></g></svg>