<svg width="2850" xmlns="http://www.w3.org/2000/svg" height="2822" fill="none"><path d="M8.500,0.000L8.500,125.000L2518.500,959.000L4.500,1797.000L4.500,1923.000L1168.500,2309.000L0.500,2698.000L0.500,2822.000L124.500,2822.000L1472.500,2372.000L1472.500,2248.000L306.500,1861.000L2823.500,1021.000L2823.500,899.000L129.500,0.000L8.500,0.000Z" style="fill: rgb(0, 0, 0); fill-opacity: 1;" class="fills"/><g class="strokes"><g class="inner-stroke-shape"><defs><clipPath id="b"><use href="#a"/></clipPath><path d="M8.500,0.000L8.500,125.000L2518.500,959.000L4.500,1797.000L4.500,1923.000L1168.500,2309.000L0.500,2698.000L0.500,2822.000L124.500,2822.000L1472.500,2372.000L1472.500,2248.000L306.500,1861.000L2823.500,1021.000L2823.500,899.000L129.500,0.000L8.500,0.000Z" id="a" style="fill: none; stroke-width: 4; stroke: rgb(0, 0, 0); stroke-opacity: 1;"/></defs><use href="#a" clip-path="url('#b')"/></g></g><path d="M0.000,1784.500L0.000,1934.500L2850.000,1934.500L2850.000,1784.500L0.000,1784.500ZM0.000,2233.500L0.000,2383.500L2850.000,2383.500L2850.000,2233.500L0.000,2233.500Z" style="fill: rgb(0, 0, 0); fill-opacity: 1;" class="fills"/><g class="strokes"><g class="inner-stroke-shape"><defs><clipPath id="d"><use href="#c"/></clipPath><path d="M0.000,1784.500L0.000,1934.500L2850.000,1934.500L2850.000,1784.500L0.000,1784.500ZM0.000,2233.500L0.000,2383.500L2850.000,2383.500L2850.000,2233.500L0.000,2233.500Z" id="c" style="fill: none; stroke-width: 4; stroke: rgb(0, 0, 0); stroke-opacity: 1;"/></defs><use href="#c" clip-path="url('#d')"/></g></g></svg>