<svg width="2820" xmlns="http://www.w3.org/2000/svg" height="2555" fill="none"><path d="M807.000,0.000L807.000,125.000L2696.000,755.000L2820.000,755.000L2820.000,630.000L928.000,0.000L807.000,0.000ZM0.000,631.000L0.000,755.000L1340.000,1201.000L1463.000,1201.000L1463.000,1079.000L118.000,631.000L0.000,631.000ZM0.000,1531.000L0.000,1656.000L2700.000,2555.000L2820.000,2555.000L2820.000,2432.000L116.000,1531.000L0.000,1531.000Z" style="fill: rgb(0, 0, 0); fill-opacity: 1;" class="fills"/><g class="strokes"><g class="inner-stroke-shape"><defs><clipPath id="b"><use href="#a"/></clipPath><path d="M807.000,0.000L807.000,125.000L2696.000,755.000L2820.000,755.000L2820.000,630.000L928.000,0.000L807.000,0.000ZM0.000,631.000L0.000,755.000L1340.000,1201.000L1463.000,1201.000L1463.000,1079.000L118.000,631.000L0.000,631.000ZM0.000,1531.000L0.000,1656.000L2700.000,2555.000L2820.000,2555.000L2820.000,2432.000L116.000,1531.000L0.000,1531.000Z" id="a" style="fill: none; stroke-width: 4; stroke: rgb(0, 0, 0); stroke-opacity: 1;"/></defs><use href="#a" clip-path="url('#b')"/></g></g></svg>