<svg width="2839.646" xmlns="http://www.w3.org/2000/svg" height="2831.196" fill="none"><path d="M125.646,0.000C42.313,0.000,0.646,0.000,0.646,0.000C0.646,0.000,-1.337,121.826,1.646,125.000C383.826,531.609,600.629,664.344,976.646,666.000C1430.646,668.000,1859.123,399.805,2820.646,125.000C2824.204,124.017,2820.646,0.000,2820.646,0.000C2820.646,0.000,2779.979,0.000,2698.646,0.000C1742.646,289.000,1373.130,503.053,982.245,531.271C742.646,540.000,489.646,406.000,125.646,0.000ZM1363.646,1358.000C1364.646,1439.000,1362.646,1480.000,1362.646,1480.000C1362.646,1480.000,1407.646,1480.000,1486.646,1480.000C1716.646,1372.000,1915.646,1336.000,2028.646,1336.000C2437.646,1358.000,2704.646,1644.875,2704.646,1923.000C2636.646,2472.000,1916.646,2749.000,1025.646,2698.000C985.646,2698.000,915.646,2698.000,915.646,2698.000C915.646,2698.000,915.646,2790.000,915.646,2823.000C1939.646,2880.000,2814.646,2646.000,2838.646,1922.000C2855.646,1406.000,2439.646,1203.000,2031.646,1209.000C1773.646,1203.000,1519.115,1273.234,1363.646,1358.000Z" style="fill: rgb(0, 0, 0); fill-opacity: 1;" class="fills"/><g class="strokes"><g class="inner-stroke-shape"><defs><clipPath id="b"><use href="#a"/></clipPath><path d="M125.646,0.000C42.313,0.000,0.646,0.000,0.646,0.000C0.646,0.000,-1.337,121.826,1.646,125.000C383.826,531.609,600.629,664.344,976.646,666.000C1430.646,668.000,1859.123,399.805,2820.646,125.000C2824.204,124.017,2820.646,0.000,2820.646,0.000C2820.646,0.000,2779.979,0.000,2698.646,0.000C1742.646,289.000,1373.130,503.053,982.245,531.271C742.646,540.000,489.646,406.000,125.646,0.000ZM1363.646,1358.000C1364.646,1439.000,1362.646,1480.000,1362.646,1480.000C1362.646,1480.000,1407.646,1480.000,1486.646,1480.000C1716.646,1372.000,1915.646,1336.000,2028.646,1336.000C2437.646,1358.000,2704.646,1644.875,2704.646,1923.000C2636.646,2472.000,1916.646,2749.000,1025.646,2698.000C985.646,2698.000,915.646,2698.000,915.646,2698.000C915.646,2698.000,915.646,2790.000,915.646,2823.000C1939.646,2880.000,2814.646,2646.000,2838.646,1922.000C2855.646,1406.000,2439.646,1203.000,2031.646,1209.000C1773.646,1203.000,1519.115,1273.234,1363.646,1358.000Z" id="a" style="fill: none; stroke-width: 4; stroke: rgb(0, 0, 0); stroke-opacity: 1;"/></defs><use href="#a" clip-path="url('#b')"/></g></g><path d="M826.646,276.000L826.646,401.000L2715.646,1031.000L2839.646,1031.000L2839.646,906.000L947.646,276.000L826.646,276.000ZM19.646,907.000L19.646,1031.000L1359.646,1477.000L1482.646,1477.000L1482.646,1355.000L137.646,907.000L19.646,907.000ZM19.646,1807.000L19.646,1932.000L2719.646,2831.000L2839.646,2831.000L2839.646,2708.000L135.646,1807.000L19.646,1807.000Z" style="fill: rgb(0, 0, 0); fill-opacity: 1;" class="fills"/><g class="strokes"><g class="inner-stroke-shape"><defs><clipPath id="d"><use href="#c"/></clipPath><path d="M826.646,276.000L826.646,401.000L2715.646,1031.000L2839.646,1031.000L2839.646,906.000L947.646,276.000L826.646,276.000ZM19.646,907.000L19.646,1031.000L1359.646,1477.000L1482.646,1477.000L1482.646,1355.000L137.646,907.000L19.646,907.000ZM19.646,1807.000L19.646,1932.000L2719.646,2831.000L2839.646,2831.000L2839.646,2708.000L135.646,1807.000L19.646,1807.000Z" id="c" style="fill: none; stroke-width: 4; stroke: rgb(0, 0, 0); stroke-opacity: 1;"/></defs><use href="#c" clip-path="url('#d')"/></g></g></svg>