<svg width="2822" xmlns="http://www.w3.org/2000/svg" height="2823" fill="none"><path d="M808.000,268.000L808.000,393.000L2697.000,1023.000L2821.000,1023.000L2821.000,898.000L929.000,268.000L808.000,268.000ZM1.000,899.000L1.000,1023.000L1341.000,1469.000L1464.000,1469.000L1464.000,1347.000L119.000,899.000L1.000,899.000ZM1.000,1799.000L1.000,1924.000L2701.000,2823.000L2821.000,2823.000L2821.000,2700.000L117.000,1799.000L1.000,1799.000Z" style="fill: rgb(0, 0, 0); fill-opacity: 1;" class="fills"/><g class="strokes"><g class="inner-stroke-shape"><defs><clipPath id="b"><use href="#a"/></clipPath><path d="M808.000,268.000L808.000,393.000L2697.000,1023.000L2821.000,1023.000L2821.000,898.000L929.000,268.000L808.000,268.000ZM1.000,899.000L1.000,1023.000L1341.000,1469.000L1464.000,1469.000L1464.000,1347.000L119.000,899.000L1.000,899.000ZM1.000,1799.000L1.000,1924.000L2701.000,2823.000L2821.000,2823.000L2821.000,2700.000L117.000,1799.000L1.000,1799.000Z" id="a" style="fill: none; stroke-width: 4; stroke: rgb(0, 0, 0); stroke-opacity: 1;"/></defs><use href="#a" clip-path="url('#b')"/></g></g><path d="M0.000,2815.000L125.000,2815.000L959.000,305.000L1797.000,2819.000L1923.000,2819.000L2309.000,1655.000L2698.000,2823.000L2822.000,2823.000L2822.000,2699.000L2372.000,1351.000L2248.000,1351.000L1861.000,2517.000L1021.000,0.000L899.000,0.000L0.000,2694.000L0.000,2815.000Z" style="fill: rgb(0, 0, 0); fill-opacity: 1;" class="fills"/><g class="strokes"><g class="inner-stroke-shape"><defs><clipPath id="d"><use href="#c"/></clipPath><path d="M0.000,2815.000L125.000,2815.000L959.000,305.000L1797.000,2819.000L1923.000,2819.000L2309.000,1655.000L2698.000,2823.000L2822.000,2823.000L2822.000,2699.000L2372.000,1351.000L2248.000,1351.000L1861.000,2517.000L1021.000,0.000L899.000,0.000L0.000,2694.000L0.000,2815.000Z" id="c" style="fill: none; stroke-width: 4; stroke: rgb(0, 0, 0); stroke-opacity: 1;"/></defs><use href="#c" clip-path="url('#d')"/></g></g></svg>