<svg width="2820" xmlns="http://www.w3.org/2000/svg" height="2820" fill="none"><path d="M265.000,2013.000L390.000,2013.000L1020.000,124.000L1020.000,0.000L895.000,0.000L265.000,1892.000L265.000,2013.000ZM896.000,2820.000L1020.000,2820.000L1466.000,1480.000L1466.000,1357.000L1344.000,1357.000L896.000,2702.000L896.000,2820.000ZM1796.000,2820.000L1921.000,2820.000L2820.000,120.000L2820.000,0.000L2697.000,0.000L1796.000,2704.000L1796.000,2820.000Z" style="fill: rgb(0, 0, 0); fill-opacity: 1;" class="fills"/><g class="strokes"><g class="inner-stroke-shape"><defs><clipPath id="b"><use href="#a"/></clipPath><path d="M265.000,2013.000L390.000,2013.000L1020.000,124.000L1020.000,0.000L895.000,0.000L265.000,1892.000L265.000,2013.000ZM896.000,2820.000L1020.000,2820.000L1466.000,1480.000L1466.000,1357.000L1344.000,1357.000L896.000,2702.000L896.000,2820.000ZM1796.000,2820.000L1921.000,2820.000L2820.000,120.000L2820.000,0.000L2697.000,0.000L1796.000,2704.000L1796.000,2820.000Z" id="a" style="fill: none; stroke-width: 4; stroke: rgb(0, 0, 0); stroke-opacity: 1;"/></defs><use href="#a" clip-path="url('#b')"/></g></g><path d="M807.000,265.000L807.000,390.000L2696.000,1020.000L2820.000,1020.000L2820.000,895.000L928.000,265.000L807.000,265.000ZM0.000,896.000L0.000,1020.000L1340.000,1466.000L1463.000,1466.000L1463.000,1344.000L118.000,896.000L0.000,896.000ZM0.000,1796.000L0.000,1921.000L2700.000,2820.000L2820.000,2820.000L2820.000,2697.000L116.000,1796.000L0.000,1796.000Z" style="fill: rgb(0, 0, 0); fill-opacity: 1;" class="fills"/><g class="strokes"><g class="inner-stroke-shape"><defs><clipPath id="d"><use href="#c"/></clipPath><path d="M807.000,265.000L807.000,390.000L2696.000,1020.000L2820.000,1020.000L2820.000,895.000L928.000,265.000L807.000,265.000ZM0.000,896.000L0.000,1020.000L1340.000,1466.000L1463.000,1466.000L1463.000,1344.000L118.000,896.000L0.000,896.000ZM0.000,1796.000L0.000,1921.000L2700.000,2820.000L2820.000,2820.000L2820.000,2697.000L116.000,1796.000L0.000,1796.000Z" id="c" style="fill: none; stroke-width: 4; stroke: rgb(0, 0, 0); stroke-opacity: 1;"/></defs><use href="#c" clip-path="url('#d')"/></g></g></svg>