<svg width="2847.322" xmlns="http://www.w3.org/2000/svg" height="2588.162" fill="none"><path d="M0.000,961.162C0.000,1017.162,0.000,1086.162,0.000,1086.162C0.000,1086.162,89.000,1086.162,117.000,1086.162C772.000,1078.162,311.000,224.162,710.000,133.162C800.000,139.162,963.000,344.162,1122.000,697.162C1452.000,1398.162,1833.000,2511.162,2205.000,2580.162C2253.000,2588.162,2280.719,2588.521,2323.000,2587.162C2348.827,2586.195,2370.000,2586.162,2407.000,2586.162C2661.000,2545.162,2737.000,2285.162,2800.057,1977.710C2887.000,1427.162,2826.500,293.662,2831.000,214.162C2822.500,214.162,2738.000,215.162,2706.500,214.162C2707.000,556.162,2724.027,1184.684,2715.000,1402.162C2693.000,1932.162,2608.000,2387.162,2322.000,2456.162C1786.000,2330.162,1368.000,421.162,886.000,36.162C830.604,-8.086,757.284,1.327,706.000,0.162C454.375,-5.557,392.000,140.162,384.000,448.162C377.269,707.308,343.375,968.490,0.000,961.162ZM0.000,961.162" style="fill: rgb(0, 0, 0); fill-opacity: 1;" class="fills"/><g class="strokes"><g class="inner-stroke-shape"><defs><clipPath id="b"><use href="#a"/></clipPath><path d="M0.000,961.162C0.000,1017.162,0.000,1086.162,0.000,1086.162C0.000,1086.162,89.000,1086.162,117.000,1086.162C772.000,1078.162,311.000,224.162,710.000,133.162C800.000,139.162,963.000,344.162,1122.000,697.162C1452.000,1398.162,1833.000,2511.162,2205.000,2580.162C2253.000,2588.162,2280.719,2588.521,2323.000,2587.162C2348.827,2586.195,2370.000,2586.162,2407.000,2586.162C2661.000,2545.162,2737.000,2285.162,2800.057,1977.710C2887.000,1427.162,2826.500,293.662,2831.000,214.162C2822.500,214.162,2738.000,215.162,2706.500,214.162C2707.000,556.162,2724.027,1184.684,2715.000,1402.162C2693.000,1932.162,2608.000,2387.162,2322.000,2456.162C1786.000,2330.162,1368.000,421.162,886.000,36.162C830.604,-8.086,757.284,1.327,706.000,0.162C454.375,-5.557,392.000,140.162,384.000,448.162C377.269,707.308,343.375,968.490,0.000,961.162ZM0.000,961.162" id="a" style="fill: none; stroke-width: 4; stroke: rgb(0, 0, 0); stroke-opacity: 1;"/></defs><use href="#a" clip-path="url('#b')"/></g></g><path d="M807.000,33.162L807.000,158.162L2696.000,788.162L2820.000,788.162L2820.000,663.162L928.000,33.162L807.000,33.162ZM0.000,664.162L0.000,788.162L1340.000,1234.162L1463.000,1234.162L1463.000,1112.162L118.000,664.162L0.000,664.162ZM0.000,1564.162L0.000,1689.162L2700.000,2588.162L2820.000,2588.162L2820.000,2465.162L116.000,1564.162L0.000,1564.162Z" style="fill: rgb(0, 0, 0); fill-opacity: 1;" class="fills"/><g class="strokes"><g class="inner-stroke-shape"><defs><clipPath id="d"><use href="#c"/></clipPath><path d="M807.000,33.162L807.000,158.162L2696.000,788.162L2820.000,788.162L2820.000,663.162L928.000,33.162L807.000,33.162ZM0.000,664.162L0.000,788.162L1340.000,1234.162L1463.000,1234.162L1463.000,1112.162L118.000,664.162L0.000,664.162ZM0.000,1564.162L0.000,1689.162L2700.000,2588.162L2820.000,2588.162L2820.000,2465.162L116.000,1564.162L0.000,1564.162Z" id="c" style="fill: none; stroke-width: 4; stroke: rgb(0, 0, 0); stroke-opacity: 1;"/></defs><use href="#c" clip-path="url('#d')"/></g></g></svg>