<svg width="2829.725" xmlns="http://www.w3.org/2000/svg" height="2558" fill="none"><path d="M0.000,2558.000L124.000,2558.000C124.000,2558.000,1305.000,1313.000,2228.000,1271.000C2683.000,1325.000,2696.000,1614.000,2696.000,1614.000C2696.000,1614.000,2679.000,2103.000,1816.000,2124.000C1817.000,2170.000,1816.000,2248.000,1816.000,2248.000C1816.000,2248.000,1863.000,2248.000,1908.000,2248.000C2651.000,2256.000,2831.000,1846.000,2828.000,1685.000C2828.000,1634.343,2831.882,1598.836,2828.000,1553.000C2802.000,1246.000,2537.000,1145.000,2220.000,1145.000C1253.000,1102.000,0.000,2435.000,0.000,2435.000L0.000,2558.000ZM405.000,486.000C403.583,708.455,604.000,832.000,729.000,826.000C890.000,832.000,1085.000,699.000,1077.000,481.000C1080.000,337.000,952.000,152.000,742.000,152.000C523.000,158.000,406.000,329.000,405.000,486.000ZM405.000,486.000M738.000,0.000C1047.000,-3.000,1227.000,267.000,1230.000,481.000C1226.920,816.042,961.000,979.000,729.000,979.000C530.000,971.000,269.000,819.000,250.000,490.000C264.000,210.000,460.000,16.000,738.000,0.000Z" style="fill: rgb(0, 0, 0); fill-opacity: 1;" class="fills"/><g class="strokes"><g class="inner-stroke-shape"><defs><clipPath id="b"><use href="#a"/></clipPath><path d="M0.000,2558.000L124.000,2558.000C124.000,2558.000,1305.000,1313.000,2228.000,1271.000C2683.000,1325.000,2696.000,1614.000,2696.000,1614.000C2696.000,1614.000,2679.000,2103.000,1816.000,2124.000C1817.000,2170.000,1816.000,2248.000,1816.000,2248.000C1816.000,2248.000,1863.000,2248.000,1908.000,2248.000C2651.000,2256.000,2831.000,1846.000,2828.000,1685.000C2828.000,1634.343,2831.882,1598.836,2828.000,1553.000C2802.000,1246.000,2537.000,1145.000,2220.000,1145.000C1253.000,1102.000,0.000,2435.000,0.000,2435.000L0.000,2558.000ZM405.000,486.000C403.583,708.455,604.000,832.000,729.000,826.000C890.000,832.000,1085.000,699.000,1077.000,481.000C1080.000,337.000,952.000,152.000,742.000,152.000C523.000,158.000,406.000,329.000,405.000,486.000ZM405.000,486.000M738.000,0.000C1047.000,-3.000,1227.000,267.000,1230.000,481.000C1226.920,816.042,961.000,979.000,729.000,979.000C530.000,971.000,269.000,819.000,250.000,490.000C264.000,210.000,460.000,16.000,738.000,0.000Z" id="a" style="fill: none; stroke-width: 4; stroke: rgb(0, 0, 0); stroke-opacity: 1;"/></defs><use href="#a" clip-path="url('#b')"/></g></g><path d="M807.000,0.000L807.000,125.000L2696.000,755.000L2820.000,755.000L2820.000,630.000L928.000,0.000L807.000,0.000ZM0.000,631.000L0.000,755.000L1340.000,1201.000L1463.000,1201.000L1463.000,1079.000L118.000,631.000L0.000,631.000ZM0.000,1531.000L0.000,1656.000L2700.000,2555.000L2820.000,2555.000L2820.000,2432.000L116.000,1531.000L0.000,1531.000Z" style="fill: rgb(0, 0, 0); fill-opacity: 1;" class="fills"/><g class="strokes"><g class="inner-stroke-shape"><defs><clipPath id="d"><use href="#c"/></clipPath><path d="M807.000,0.000L807.000,125.000L2696.000,755.000L2820.000,755.000L2820.000,630.000L928.000,0.000L807.000,0.000ZM0.000,631.000L0.000,755.000L1340.000,1201.000L1463.000,1201.000L1463.000,1079.000L118.000,631.000L0.000,631.000ZM0.000,1531.000L0.000,1656.000L2700.000,2555.000L2820.000,2555.000L2820.000,2432.000L116.000,1531.000L0.000,1531.000Z" id="c" style="fill: none; stroke-width: 4; stroke: rgb(0, 0, 0); stroke-opacity: 1;"/></defs><use href="#c" clip-path="url('#d')"/></g></g></svg>