<svg width="2850" xmlns="http://www.w3.org/2000/svg" height="2555" fill="none"><path d="M0.000,1518.000L0.000,1668.000L2850.000,1668.000L2850.000,1518.000L0.000,1518.000ZM0.000,1967.000L0.000,2117.000L2850.000,2117.000L2850.000,1967.000L0.000,1967.000Z" style="fill: rgb(0, 0, 0); fill-opacity: 1;" class="fills"/><g class="strokes"><g class="inner-stroke-shape"><defs><clipPath id="b"><use href="#a"/></clipPath><path d="M0.000,1518.000L0.000,1668.000L2850.000,1668.000L2850.000,1518.000L0.000,1518.000ZM0.000,1967.000L0.000,2117.000L2850.000,2117.000L2850.000,1967.000L0.000,1967.000Z" id="a" style="fill: none; stroke-width: 4; stroke: rgb(0, 0, 0); stroke-opacity: 1;"/></defs><use href="#a" clip-path="url('#b')"/></g></g><path d="M811.000,0.000L811.000,125.000L2700.000,755.000L2824.000,755.000L2824.000,630.000L932.000,0.000L811.000,0.000ZM4.000,631.000L4.000,755.000L1344.000,1201.000L1467.000,1201.000L1467.000,1079.000L122.000,631.000L4.000,631.000ZM4.000,1531.000L4.000,1656.000L2704.000,2555.000L2824.000,2555.000L2824.000,2432.000L120.000,1531.000L4.000,1531.000Z" style="fill: rgb(0, 0, 0); fill-opacity: 1;" class="fills"/><g class="strokes"><g class="inner-stroke-shape"><defs><clipPath id="d"><use href="#c"/></clipPath><path d="M811.000,0.000L811.000,125.000L2700.000,755.000L2824.000,755.000L2824.000,630.000L932.000,0.000L811.000,0.000ZM4.000,631.000L4.000,755.000L1344.000,1201.000L1467.000,1201.000L1467.000,1079.000L122.000,631.000L4.000,631.000ZM4.000,1531.000L4.000,1656.000L2704.000,2555.000L2824.000,2555.000L2824.000,2432.000L120.000,1531.000L4.000,1531.000Z" id="c" style="fill: none; stroke-width: 4; stroke: rgb(0, 0, 0); stroke-opacity: 1;"/></defs><use href="#c" clip-path="url('#d')"/></g></g></svg>