<svg width="2839.15" xmlns="http://www.w3.org/2000/svg" height="2847.322" fill="none"><path d="M125.646,0.000C42.313,0.000,0.646,0.000,0.646,0.000C0.646,0.000,-1.337,121.826,1.646,125.000C383.826,531.609,600.629,664.344,976.646,666.000C1430.646,668.000,1859.123,399.805,2820.646,125.000C2824.204,124.017,2820.646,0.000,2820.646,0.000C2820.646,0.000,2779.979,0.000,2698.646,0.000C1742.646,289.000,1373.130,503.053,982.245,531.271C742.646,540.000,489.646,406.000,125.646,0.000ZM1363.646,1358.000C1364.646,1439.000,1362.646,1480.000,1362.646,1480.000C1362.646,1480.000,1407.646,1480.000,1486.646,1480.000C1716.646,1372.000,1915.646,1336.000,2028.646,1336.000C2437.646,1358.000,2704.646,1644.875,2704.646,1923.000C2636.646,2472.000,1916.646,2749.000,1025.646,2698.000C985.646,2698.000,915.646,2698.000,915.646,2698.000C915.646,2698.000,915.646,2790.000,915.646,2823.000C1939.646,2880.000,2814.646,2646.000,2838.646,1922.000C2855.646,1406.000,2439.646,1203.000,2031.646,1209.000C1773.646,1203.000,1519.115,1273.234,1363.646,1358.000Z" style="fill: rgb(0, 0, 0); fill-opacity: 1;" class="fills"/><g class="strokes"><g class="inner-stroke-shape"><defs><clipPath id="b"><use href="#a"/></clipPath><path d="M125.646,0.000C42.313,0.000,0.646,0.000,0.646,0.000C0.646,0.000,-1.337,121.826,1.646,125.000C383.826,531.609,600.629,664.344,976.646,666.000C1430.646,668.000,1859.123,399.805,2820.646,125.000C2824.204,124.017,2820.646,0.000,2820.646,0.000C2820.646,0.000,2779.979,0.000,2698.646,0.000C1742.646,289.000,1373.130,503.053,982.245,531.271C742.646,540.000,489.646,406.000,125.646,0.000ZM1363.646,1358.000C1364.646,1439.000,1362.646,1480.000,1362.646,1480.000C1362.646,1480.000,1407.646,1480.000,1486.646,1480.000C1716.646,1372.000,1915.646,1336.000,2028.646,1336.000C2437.646,1358.000,2704.646,1644.875,2704.646,1923.000C2636.646,2472.000,1916.646,2749.000,1025.646,2698.000C985.646,2698.000,915.646,2698.000,915.646,2698.000C915.646,2698.000,915.646,2790.000,915.646,2823.000C1939.646,2880.000,2814.646,2646.000,2838.646,1922.000C2855.646,1406.000,2439.646,1203.000,2031.646,1209.000C1773.646,1203.000,1519.115,1273.234,1363.646,1358.000Z" id="a" style="fill: none; stroke-width: 4; stroke: rgb(0, 0, 0); stroke-opacity: 1;"/></defs><use href="#a" clip-path="url('#b')"/></g></g><path d="M1626.609,0.000C1570.609,0.000,1501.609,0.000,1501.609,0.000C1501.609,0.000,1501.609,89.000,1501.609,117.000C1509.609,772.000,2363.609,311.000,2454.609,710.000C2448.609,800.000,2243.609,963.000,1890.609,1122.000C1189.609,1452.000,76.609,1833.000,7.609,2205.000C-0.391,2253.000,-0.751,2280.719,0.609,2323.000C1.575,2348.827,1.609,2370.000,1.609,2407.000C42.609,2661.000,302.609,2737.000,610.060,2800.057C1160.609,2887.000,2294.109,2826.500,2373.609,2831.000C2373.609,2822.500,2372.609,2738.000,2373.609,2706.500C2031.609,2707.000,1403.086,2724.027,1185.609,2715.000C655.609,2693.000,200.609,2608.000,131.609,2322.000C257.609,1786.000,2166.609,1368.000,2551.609,886.000C2595.857,830.604,2586.443,757.284,2587.609,706.000C2593.327,454.375,2447.609,392.000,2139.609,384.000C1880.463,377.269,1619.281,343.375,1626.609,0.000ZM1626.609,0.000" style="fill: rgb(0, 0, 0); fill-opacity: 1;" class="fills"/><g class="strokes"><g class="inner-stroke-shape"><defs><clipPath id="d"><use href="#c"/></clipPath><path d="M1626.609,0.000C1570.609,0.000,1501.609,0.000,1501.609,0.000C1501.609,0.000,1501.609,89.000,1501.609,117.000C1509.609,772.000,2363.609,311.000,2454.609,710.000C2448.609,800.000,2243.609,963.000,1890.609,1122.000C1189.609,1452.000,76.609,1833.000,7.609,2205.000C-0.391,2253.000,-0.751,2280.719,0.609,2323.000C1.575,2348.827,1.609,2370.000,1.609,2407.000C42.609,2661.000,302.609,2737.000,610.060,2800.057C1160.609,2887.000,2294.109,2826.500,2373.609,2831.000C2373.609,2822.500,2372.609,2738.000,2373.609,2706.500C2031.609,2707.000,1403.086,2724.027,1185.609,2715.000C655.609,2693.000,200.609,2608.000,131.609,2322.000C257.609,1786.000,2166.609,1368.000,2551.609,886.000C2595.857,830.604,2586.443,757.284,2587.609,706.000C2593.327,454.375,2447.609,392.000,2139.609,384.000C1880.463,377.269,1619.281,343.375,1626.609,0.000ZM1626.609,0.000" id="c" style="fill: none; stroke-width: 4; stroke: rgb(0, 0, 0); stroke-opacity: 1;"/></defs><use href="#c" clip-path="url('#d')"/></g></g></svg>