<svg width="2555" xmlns="http://www.w3.org/2000/svg" height="2820" viewBox="-139 -769 2555 2820" fill="none"><path d="M-139.000,1244.000L-14.000,1244.000L616.000,-645.000L616.000,-769.000L491.000,-769.000L-139.000,1123.000L-139.000,1244.000ZM492.000,2051.000L616.000,2051.000L1062.000,711.000L1062.000,588.000L940.000,588.000L492.000,1933.000L492.000,2051.000ZM1392.000,2051.000L1517.000,2051.000L2416.000,-649.000L2416.000,-769.000L2293.000,-769.000L1392.000,1935.000L1392.000,2051.000Z" style="fill: rgb(0, 0, 0); fill-opacity: 1;" class="fills"/><g class="strokes"><g class="inner-stroke-shape"><defs><clipPath id="b"><use href="#a"/></clipPath><path d="M-139.000,1244.000L-14.000,1244.000L616.000,-645.000L616.000,-769.000L491.000,-769.000L-139.000,1123.000L-139.000,1244.000ZM492.000,2051.000L616.000,2051.000L1062.000,711.000L1062.000,588.000L940.000,588.000L492.000,1933.000L492.000,2051.000ZM1392.000,2051.000L1517.000,2051.000L2416.000,-649.000L2416.000,-769.000L2293.000,-769.000L1392.000,1935.000L1392.000,2051.000Z" id="a" style="fill: none; stroke-width: 4; stroke: rgb(0, 0, 0); stroke-opacity: 1;"/></defs><use href="#a" clip-path="url('#b')"/></g></g></svg>