<svg width="2822" xmlns="http://www.w3.org/2000/svg" height="2847.322" fill="none"><path d="M0.000,2815.000L125.000,2815.000L959.000,305.000L1797.000,2819.000L1923.000,2819.000L2309.000,1655.000L2698.000,2823.000L2822.000,2823.000L2822.000,2699.000L2372.000,1351.000L2248.000,1351.000L1861.000,2517.000L1021.000,0.000L899.000,0.000L0.000,2694.000L0.000,2815.000Z" style="fill: rgb(0, 0, 0); fill-opacity: 1;" class="fills"/><g class="strokes"><g class="inner-stroke-shape"><defs><clipPath id="b"><use href="#a"/></clipPath><path d="M0.000,2815.000L125.000,2815.000L959.000,305.000L1797.000,2819.000L1923.000,2819.000L2309.000,1655.000L2698.000,2823.000L2822.000,2823.000L2822.000,2699.000L2372.000,1351.000L2248.000,1351.000L1861.000,2517.000L1021.000,0.000L899.000,0.000L0.000,2694.000L0.000,2815.000Z" id="a" style="fill: none; stroke-width: 4; stroke: rgb(0, 0, 0); stroke-opacity: 1;"/></defs><use href="#a" clip-path="url('#b')"/></g></g><path d="M1626.609,0.000C1570.609,0.000,1501.609,0.000,1501.609,0.000C1501.609,0.000,1501.609,89.000,1501.609,117.000C1509.609,772.000,2363.609,311.000,2454.609,710.000C2448.609,800.000,2243.609,963.000,1890.609,1122.000C1189.609,1452.000,76.609,1833.000,7.609,2205.000C-0.391,2253.000,-0.751,2280.719,0.609,2323.000C1.575,2348.827,1.609,2370.000,1.609,2407.000C42.609,2661.000,302.609,2737.000,610.060,2800.057C1160.609,2887.000,2294.109,2826.500,2373.609,2831.000C2373.609,2822.500,2372.609,2738.000,2373.609,2706.500C2031.609,2707.000,1403.086,2724.027,1185.609,2715.000C655.609,2693.000,200.609,2608.000,131.609,2322.000C257.609,1786.000,2166.609,1368.000,2551.609,886.000C2595.857,830.604,2586.443,757.284,2587.609,706.000C2593.327,454.375,2447.609,392.000,2139.609,384.000C1880.463,377.269,1619.281,343.375,1626.609,0.000ZM1626.609,0.000" style="fill: rgb(0, 0, 0); fill-opacity: 1;" class="fills"/><g class="strokes"><g class="inner-stroke-shape"><defs><clipPath id="d"><use href="#c"/></clipPath><path d="M1626.609,0.000C1570.609,0.000,1501.609,0.000,1501.609,0.000C1501.609,0.000,1501.609,89.000,1501.609,117.000C1509.609,772.000,2363.609,311.000,2454.609,710.000C2448.609,800.000,2243.609,963.000,1890.609,1122.000C1189.609,1452.000,76.609,1833.000,7.609,2205.000C-0.391,2253.000,-0.751,2280.719,0.609,2323.000C1.575,2348.827,1.609,2370.000,1.609,2407.000C42.609,2661.000,302.609,2737.000,610.060,2800.057C1160.609,2887.000,2294.109,2826.500,2373.609,2831.000C2373.609,2822.500,2372.609,2738.000,2373.609,2706.500C2031.609,2707.000,1403.086,2724.027,1185.609,2715.000C655.609,2693.000,200.609,2608.000,131.609,2322.000C257.609,1786.000,2166.609,1368.000,2551.609,886.000C2595.857,830.604,2586.443,757.284,2587.609,706.000C2593.327,454.375,2447.609,392.000,2139.609,384.000C1880.463,377.269,1619.281,343.375,1626.609,0.000ZM1626.609,0.000" id="c" style="fill: none; stroke-width: 4; stroke: rgb(0, 0, 0); stroke-opacity: 1;"/></defs><use href="#c" clip-path="url('#d')"/></g></g></svg>