<svg width="2847.322" xmlns="http://www.w3.org/2000/svg" height="2847.609" fill="none"><path d="M0.000,1221.000C0.000,1277.000,0.000,1346.000,0.000,1346.000C0.000,1346.000,89.000,1346.000,117.000,1346.000C772.000,1338.000,311.000,484.000,710.000,393.000C800.000,399.000,963.000,604.000,1122.000,957.000C1452.000,1658.000,1833.000,2771.000,2205.000,2840.000C2253.000,2848.000,2280.719,2848.359,2323.000,2847.000C2348.827,2846.034,2370.000,2846.000,2407.000,2846.000C2661.000,2805.000,2737.000,2545.000,2800.057,2237.548C2887.000,1687.000,2826.500,553.500,2831.000,474.000C2822.500,474.000,2738.000,475.000,2706.500,474.000C2707.000,816.000,2724.027,1444.522,2715.000,1662.000C2693.000,2192.000,2608.000,2647.000,2322.000,2716.000C1786.000,2590.000,1368.000,681.000,886.000,296.000C830.604,251.752,757.284,261.166,706.000,260.000C454.375,254.281,392.000,400.000,384.000,708.000C377.269,967.146,343.375,1228.328,0.000,1221.000ZM0.000,1221.000" style="fill: rgb(0, 0, 0); fill-opacity: 1;" class="fills"/><g class="strokes"><g class="inner-stroke-shape"><defs><clipPath id="b"><use href="#a"/></clipPath><path d="M0.000,1221.000C0.000,1277.000,0.000,1346.000,0.000,1346.000C0.000,1346.000,89.000,1346.000,117.000,1346.000C772.000,1338.000,311.000,484.000,710.000,393.000C800.000,399.000,963.000,604.000,1122.000,957.000C1452.000,1658.000,1833.000,2771.000,2205.000,2840.000C2253.000,2848.000,2280.719,2848.359,2323.000,2847.000C2348.827,2846.034,2370.000,2846.000,2407.000,2846.000C2661.000,2805.000,2737.000,2545.000,2800.057,2237.548C2887.000,1687.000,2826.500,553.500,2831.000,474.000C2822.500,474.000,2738.000,475.000,2706.500,474.000C2707.000,816.000,2724.027,1444.522,2715.000,1662.000C2693.000,2192.000,2608.000,2647.000,2322.000,2716.000C1786.000,2590.000,1368.000,681.000,886.000,296.000C830.604,251.752,757.284,261.166,706.000,260.000C454.375,254.281,392.000,400.000,384.000,708.000C377.269,967.146,343.375,1228.328,0.000,1221.000ZM0.000,1221.000" id="a" style="fill: none; stroke-width: 4; stroke: rgb(0, 0, 0); stroke-opacity: 1;"/></defs><use href="#a" clip-path="url('#b')"/></g></g><path d="M1753.609,0.000C1697.609,0.000,1628.609,0.000,1628.609,0.000C1628.609,0.000,1628.609,89.000,1628.609,117.000C1636.609,772.000,2490.609,311.000,2581.609,710.000C2575.609,800.000,2370.609,963.000,2017.609,1122.000C1316.609,1452.000,203.609,1833.000,134.609,2205.000C126.609,2253.000,126.249,2280.719,127.609,2323.000C128.575,2348.827,128.609,2370.000,128.609,2407.000C169.609,2661.000,429.609,2737.000,737.060,2800.057C1287.609,2887.000,2421.109,2826.500,2500.609,2831.000C2500.609,2822.500,2499.609,2738.000,2500.609,2706.500C2158.609,2707.000,1530.086,2724.027,1312.609,2715.000C782.609,2693.000,327.609,2608.000,258.609,2322.000C384.609,1786.000,2293.609,1368.000,2678.609,886.000C2722.857,830.604,2713.443,757.284,2714.609,706.000C2720.327,454.375,2574.609,392.000,2266.609,384.000C2007.463,377.269,1746.281,343.375,1753.609,0.000ZM1753.609,0.000" style="fill: rgb(0, 0, 0); fill-opacity: 1;" class="fills"/><g class="strokes"><g class="inner-stroke-shape"><defs><clipPath id="d"><use href="#c"/></clipPath><path d="M1753.609,0.000C1697.609,0.000,1628.609,0.000,1628.609,0.000C1628.609,0.000,1628.609,89.000,1628.609,117.000C1636.609,772.000,2490.609,311.000,2581.609,710.000C2575.609,800.000,2370.609,963.000,2017.609,1122.000C1316.609,1452.000,203.609,1833.000,134.609,2205.000C126.609,2253.000,126.249,2280.719,127.609,2323.000C128.575,2348.827,128.609,2370.000,128.609,2407.000C169.609,2661.000,429.609,2737.000,737.060,2800.057C1287.609,2887.000,2421.109,2826.500,2500.609,2831.000C2500.609,2822.500,2499.609,2738.000,2500.609,2706.500C2158.609,2707.000,1530.086,2724.027,1312.609,2715.000C782.609,2693.000,327.609,2608.000,258.609,2322.000C384.609,1786.000,2293.609,1368.000,2678.609,886.000C2722.857,830.604,2713.443,757.284,2714.609,706.000C2720.327,454.375,2574.609,392.000,2266.609,384.000C2007.463,377.269,1746.281,343.375,1753.609,0.000ZM1753.609,0.000" id="c" style="fill: none; stroke-width: 4; stroke: rgb(0, 0, 0); stroke-opacity: 1;"/></defs><use href="#c" clip-path="url('#d')"/></g></g></svg>