<svg width="2829.725" xmlns="http://www.w3.org/2000/svg" height="2847.322" fill="none"><path d="M0.000,2776.000L124.000,2776.000C124.000,2776.000,1305.000,1531.000,2228.000,1489.000C2683.000,1543.000,2696.000,1832.000,2696.000,1832.000C2696.000,1832.000,2679.000,2321.000,1816.000,2342.000C1817.000,2388.000,1816.000,2466.000,1816.000,2466.000C1816.000,2466.000,1863.000,2466.000,1908.000,2466.000C2651.000,2474.000,2831.000,2064.000,2828.000,1903.000C2828.000,1852.343,2831.882,1816.836,2828.000,1771.000C2802.000,1464.000,2537.000,1363.000,2220.000,1363.000C1253.000,1320.000,0.000,2653.000,0.000,2653.000L0.000,2776.000ZM405.000,704.000C403.583,926.455,604.000,1050.000,729.000,1044.000C890.000,1050.000,1085.000,917.000,1077.000,699.000C1080.000,555.000,952.000,370.000,742.000,370.000C523.000,376.000,406.000,547.000,405.000,704.000ZM405.000,704.000M738.000,218.000C1047.000,215.000,1227.000,485.000,1230.000,699.000C1226.920,1034.042,961.000,1197.000,729.000,1197.000C530.000,1189.000,269.000,1037.000,250.000,708.000C264.000,428.000,460.000,234.000,738.000,218.000Z" style="fill: rgb(0, 0, 0); fill-opacity: 1;" class="fills"/><g class="strokes"><g class="inner-stroke-shape"><defs><clipPath id="b"><use href="#a"/></clipPath><path d="M0.000,2776.000L124.000,2776.000C124.000,2776.000,1305.000,1531.000,2228.000,1489.000C2683.000,1543.000,2696.000,1832.000,2696.000,1832.000C2696.000,1832.000,2679.000,2321.000,1816.000,2342.000C1817.000,2388.000,1816.000,2466.000,1816.000,2466.000C1816.000,2466.000,1863.000,2466.000,1908.000,2466.000C2651.000,2474.000,2831.000,2064.000,2828.000,1903.000C2828.000,1852.343,2831.882,1816.836,2828.000,1771.000C2802.000,1464.000,2537.000,1363.000,2220.000,1363.000C1253.000,1320.000,0.000,2653.000,0.000,2653.000L0.000,2776.000ZM405.000,704.000C403.583,926.455,604.000,1050.000,729.000,1044.000C890.000,1050.000,1085.000,917.000,1077.000,699.000C1080.000,555.000,952.000,370.000,742.000,370.000C523.000,376.000,406.000,547.000,405.000,704.000ZM405.000,704.000M738.000,218.000C1047.000,215.000,1227.000,485.000,1230.000,699.000C1226.920,1034.042,961.000,1197.000,729.000,1197.000C530.000,1189.000,269.000,1037.000,250.000,708.000C264.000,428.000,460.000,234.000,738.000,218.000Z" id="a" style="fill: none; stroke-width: 4; stroke: rgb(0, 0, 0); stroke-opacity: 1;"/></defs><use href="#a" clip-path="url('#b')"/></g></g><path d="M1626.609,0.000C1570.609,0.000,1501.609,0.000,1501.609,0.000C1501.609,0.000,1501.609,89.000,1501.609,117.000C1509.609,772.000,2363.609,311.000,2454.609,710.000C2448.609,800.000,2243.609,963.000,1890.609,1122.000C1189.609,1452.000,76.609,1833.000,7.609,2205.000C-0.391,2253.000,-0.751,2280.719,0.609,2323.000C1.575,2348.827,1.609,2370.000,1.609,2407.000C42.609,2661.000,302.609,2737.000,610.060,2800.057C1160.609,2887.000,2294.109,2826.500,2373.609,2831.000C2373.609,2822.500,2372.609,2738.000,2373.609,2706.500C2031.609,2707.000,1403.086,2724.027,1185.609,2715.000C655.609,2693.000,200.609,2608.000,131.609,2322.000C257.609,1786.000,2166.609,1368.000,2551.609,886.000C2595.857,830.604,2586.443,757.284,2587.609,706.000C2593.327,454.375,2447.609,392.000,2139.609,384.000C1880.463,377.269,1619.281,343.375,1626.609,0.000ZM1626.609,0.000" style="fill: rgb(0, 0, 0); fill-opacity: 1;" class="fills"/><g class="strokes"><g class="inner-stroke-shape"><defs><clipPath id="d"><use href="#c"/></clipPath><path d="M1626.609,0.000C1570.609,0.000,1501.609,0.000,1501.609,0.000C1501.609,0.000,1501.609,89.000,1501.609,117.000C1509.609,772.000,2363.609,311.000,2454.609,710.000C2448.609,800.000,2243.609,963.000,1890.609,1122.000C1189.609,1452.000,76.609,1833.000,7.609,2205.000C-0.391,2253.000,-0.751,2280.719,0.609,2323.000C1.575,2348.827,1.609,2370.000,1.609,2407.000C42.609,2661.000,302.609,2737.000,610.060,2800.057C1160.609,2887.000,2294.109,2826.500,2373.609,2831.000C2373.609,2822.500,2372.609,2738.000,2373.609,2706.500C2031.609,2707.000,1403.086,2724.027,1185.609,2715.000C655.609,2693.000,200.609,2608.000,131.609,2322.000C257.609,1786.000,2166.609,1368.000,2551.609,886.000C2595.857,830.604,2586.443,757.284,2587.609,706.000C2593.327,454.375,2447.609,392.000,2139.609,384.000C1880.463,377.269,1619.281,343.375,1626.609,0.000ZM1626.609,0.000" id="c" style="fill: none; stroke-width: 4; stroke: rgb(0, 0, 0); stroke-opacity: 1;"/></defs><use href="#c" clip-path="url('#d')"/></g></g></svg>