<svg width="2850" xmlns="http://www.w3.org/2000/svg" height="2847.322" fill="none"><path d="M1764.609,0.000C1708.609,0.000,1639.609,0.000,1639.609,0.000C1639.609,0.000,1639.609,89.000,1639.609,117.000C1647.609,772.000,2501.609,311.000,2592.609,710.000C2586.609,800.000,2381.609,963.000,2028.609,1122.000C1327.609,1452.000,214.609,1833.000,145.609,2205.000C137.609,2253.000,137.249,2280.719,138.609,2323.000C139.575,2348.827,139.609,2370.000,139.609,2407.000C180.609,2661.000,440.609,2737.000,748.060,2800.057C1298.609,2887.000,2432.109,2826.500,2511.609,2831.000C2511.609,2822.500,2510.609,2738.000,2511.609,2706.500C2169.609,2707.000,1541.086,2724.027,1323.609,2715.000C793.609,2693.000,338.609,2608.000,269.609,2322.000C395.609,1786.000,2304.609,1368.000,2689.609,886.000C2733.857,830.604,2724.443,757.284,2725.609,706.000C2731.327,454.375,2585.609,392.000,2277.609,384.000C2018.463,377.269,1757.281,343.375,1764.609,0.000ZM1764.609,0.000" style="fill: rgb(0, 0, 0); fill-opacity: 1;" class="fills"/><g class="strokes"><g class="inner-stroke-shape"><defs><clipPath id="b"><use href="#a"/></clipPath><path d="M1764.609,0.000C1708.609,0.000,1639.609,0.000,1639.609,0.000C1639.609,0.000,1639.609,89.000,1639.609,117.000C1647.609,772.000,2501.609,311.000,2592.609,710.000C2586.609,800.000,2381.609,963.000,2028.609,1122.000C1327.609,1452.000,214.609,1833.000,145.609,2205.000C137.609,2253.000,137.249,2280.719,138.609,2323.000C139.575,2348.827,139.609,2370.000,139.609,2407.000C180.609,2661.000,440.609,2737.000,748.060,2800.057C1298.609,2887.000,2432.109,2826.500,2511.609,2831.000C2511.609,2822.500,2510.609,2738.000,2511.609,2706.500C2169.609,2707.000,1541.086,2724.027,1323.609,2715.000C793.609,2693.000,338.609,2608.000,269.609,2322.000C395.609,1786.000,2304.609,1368.000,2689.609,886.000C2733.857,830.604,2724.443,757.284,2725.609,706.000C2731.327,454.375,2585.609,392.000,2277.609,384.000C2018.463,377.269,1757.281,343.375,1764.609,0.000ZM1764.609,0.000" id="a" style="fill: none; stroke-width: 4; stroke: rgb(0, 0, 0); stroke-opacity: 1;"/></defs><use href="#a" clip-path="url('#b')"/></g></g><path d="M0.000,1794.000L0.000,1944.000L2850.000,1944.000L2850.000,1794.000L0.000,1794.000ZM0.000,2243.000L0.000,2393.000L2850.000,2393.000L2850.000,2243.000L0.000,2243.000Z" style="fill: rgb(0, 0, 0); fill-opacity: 1;" class="fills"/><g class="strokes"><g class="inner-stroke-shape"><defs><clipPath id="d"><use href="#c"/></clipPath><path d="M0.000,1794.000L0.000,1944.000L2850.000,1944.000L2850.000,1794.000L0.000,1794.000ZM0.000,2243.000L0.000,2393.000L2850.000,2393.000L2850.000,2243.000L0.000,2243.000Z" id="c" style="fill: none; stroke-width: 4; stroke: rgb(0, 0, 0); stroke-opacity: 1;"/></defs><use href="#c" clip-path="url('#d')"/></g></g></svg>