<svg width="2558" xmlns="http://www.w3.org/2000/svg" height="2829.725" viewBox="-253.137 -594.863 2558 2829.725" fill="none"><path d="M-253.137,-594.863L-253.137,-470.863C-253.137,-470.863,991.863,710.137,1033.863,1633.137C979.863,2088.137,690.863,2101.137,690.863,2101.137C690.863,2101.137,201.863,2084.137,180.863,1221.137C134.863,1222.137,56.863,1221.137,56.863,1221.137C56.863,1221.137,56.863,1268.137,56.863,1313.137C48.863,2056.137,458.863,2236.137,619.863,2233.137C670.520,2233.137,706.027,2237.019,751.863,2233.137C1058.863,2207.137,1159.863,1942.137,1159.863,1625.137C1202.863,658.137,-130.137,-594.863,-130.137,-594.863L-253.137,-594.863ZM1818.863,-189.863C1596.408,-191.280,1472.863,9.137,1478.863,134.137C1472.863,295.137,1605.863,490.137,1823.863,482.137C1967.863,485.137,2152.863,357.137,2152.863,147.137C2146.863,-71.863,1975.863,-188.863,1818.863,-189.863ZM1818.863,-189.863M2304.863,143.137C2307.863,452.137,2037.863,632.137,1823.863,635.137C1488.820,632.057,1325.863,366.137,1325.863,134.137C1333.863,-64.863,1485.863,-325.863,1814.863,-344.863C2094.863,-330.863,2288.863,-134.863,2304.863,143.137Z" style="fill: rgb(0, 0, 0); fill-opacity: 1;" class="fills"/><g class="strokes"><g class="inner-stroke-shape"><defs><clipPath id="b"><use href="#a"/></clipPath><path d="M-253.137,-594.863L-253.137,-470.863C-253.137,-470.863,991.863,710.137,1033.863,1633.137C979.863,2088.137,690.863,2101.137,690.863,2101.137C690.863,2101.137,201.863,2084.137,180.863,1221.137C134.863,1222.137,56.863,1221.137,56.863,1221.137C56.863,1221.137,56.863,1268.137,56.863,1313.137C48.863,2056.137,458.863,2236.137,619.863,2233.137C670.520,2233.137,706.027,2237.019,751.863,2233.137C1058.863,2207.137,1159.863,1942.137,1159.863,1625.137C1202.863,658.137,-130.137,-594.863,-130.137,-594.863L-253.137,-594.863ZM1818.863,-189.863C1596.408,-191.280,1472.863,9.137,1478.863,134.137C1472.863,295.137,1605.863,490.137,1823.863,482.137C1967.863,485.137,2152.863,357.137,2152.863,147.137C2146.863,-71.863,1975.863,-188.863,1818.863,-189.863ZM1818.863,-189.863M2304.863,143.137C2307.863,452.137,2037.863,632.137,1823.863,635.137C1488.820,632.057,1325.863,366.137,1325.863,134.137C1333.863,-64.863,1485.863,-325.863,1814.863,-344.863C2094.863,-330.863,2288.863,-134.863,2304.863,143.137Z" id="a" style="fill: none; stroke-width: 4; stroke: rgb(0, 0, 0); stroke-opacity: 1;"/></defs><use href="#a" clip-path="url('#b')"/></g></g></svg>