<svg width="2839.15" xmlns="http://www.w3.org/2000/svg" height="2831.196" fill="none"><path d="M125.646,0.000C42.313,0.000,0.646,0.000,0.646,0.000C0.646,0.000,-1.337,121.826,1.646,125.000C383.826,531.609,600.629,664.344,976.646,666.000C1430.646,668.000,1859.123,399.805,2820.646,125.000C2824.204,124.017,2820.646,0.000,2820.646,0.000C2820.646,0.000,2779.979,0.000,2698.646,0.000C1742.646,289.000,1373.130,503.053,982.245,531.271C742.646,540.000,489.646,406.000,125.646,0.000ZM1363.646,1358.000C1364.646,1439.000,1362.646,1480.000,1362.646,1480.000C1362.646,1480.000,1407.646,1480.000,1486.646,1480.000C1716.646,1372.000,1915.646,1336.000,2028.646,1336.000C2437.646,1358.000,2704.646,1644.875,2704.646,1923.000C2636.646,2472.000,1916.646,2749.000,1025.646,2698.000C985.646,2698.000,915.646,2698.000,915.646,2698.000C915.646,2698.000,915.646,2790.000,915.646,2823.000C1939.646,2880.000,2814.646,2646.000,2838.646,1922.000C2855.646,1406.000,2439.646,1203.000,2031.646,1209.000C1773.646,1203.000,1519.115,1273.234,1363.646,1358.000Z" style="fill: rgb(0, 0, 0); fill-opacity: 1;" class="fills"/><g class="strokes"><g class="inner-stroke-shape"><defs><clipPath id="b"><use href="#a"/></clipPath><path d="M125.646,0.000C42.313,0.000,0.646,0.000,0.646,0.000C0.646,0.000,-1.337,121.826,1.646,125.000C383.826,531.609,600.629,664.344,976.646,666.000C1430.646,668.000,1859.123,399.805,2820.646,125.000C2824.204,124.017,2820.646,0.000,2820.646,0.000C2820.646,0.000,2779.979,0.000,2698.646,0.000C1742.646,289.000,1373.130,503.053,982.245,531.271C742.646,540.000,489.646,406.000,125.646,0.000ZM1363.646,1358.000C1364.646,1439.000,1362.646,1480.000,1362.646,1480.000C1362.646,1480.000,1407.646,1480.000,1486.646,1480.000C1716.646,1372.000,1915.646,1336.000,2028.646,1336.000C2437.646,1358.000,2704.646,1644.875,2704.646,1923.000C2636.646,2472.000,1916.646,2749.000,1025.646,2698.000C985.646,2698.000,915.646,2698.000,915.646,2698.000C915.646,2698.000,915.646,2790.000,915.646,2823.000C1939.646,2880.000,2814.646,2646.000,2838.646,1922.000C2855.646,1406.000,2439.646,1203.000,2031.646,1209.000C1773.646,1203.000,1519.115,1273.234,1363.646,1358.000Z" id="a" style="fill: none; stroke-width: 4; stroke: rgb(0, 0, 0); stroke-opacity: 1;"/></defs><use href="#a" clip-path="url('#b')"/></g></g><path d="M0.000,0.000L0.000,124.000C0.000,124.000,1245.000,1305.000,1287.000,2228.000C1233.000,2683.000,944.000,2696.000,944.000,2696.000C944.000,2696.000,455.000,2679.000,434.000,1816.000C388.000,1817.000,310.000,1816.000,310.000,1816.000C310.000,1816.000,310.000,1863.000,310.000,1908.000C302.000,2651.000,712.000,2831.000,873.000,2828.000C923.657,2828.000,959.164,2831.882,1005.000,2828.000C1312.000,2802.000,1413.000,2537.000,1413.000,2220.000C1456.000,1253.000,123.000,0.000,123.000,0.000L0.000,0.000ZM2072.000,405.000C1849.545,403.583,1726.000,604.000,1732.000,729.000C1726.000,890.000,1859.000,1085.000,2077.000,1077.000C2221.000,1080.000,2406.000,952.000,2406.000,742.000C2400.000,523.000,2229.000,406.000,2072.000,405.000ZM2072.000,405.000M2558.000,738.000C2561.000,1047.000,2291.000,1227.000,2077.000,1230.000C1741.958,1226.920,1579.000,961.000,1579.000,729.000C1587.000,530.000,1739.000,269.000,2068.000,250.000C2348.000,264.000,2542.000,460.000,2558.000,738.000Z" style="fill: rgb(0, 0, 0); fill-opacity: 1;" class="fills"/><g class="strokes"><g class="inner-stroke-shape"><defs><clipPath id="d"><use href="#c"/></clipPath><path d="M0.000,0.000L0.000,124.000C0.000,124.000,1245.000,1305.000,1287.000,2228.000C1233.000,2683.000,944.000,2696.000,944.000,2696.000C944.000,2696.000,455.000,2679.000,434.000,1816.000C388.000,1817.000,310.000,1816.000,310.000,1816.000C310.000,1816.000,310.000,1863.000,310.000,1908.000C302.000,2651.000,712.000,2831.000,873.000,2828.000C923.657,2828.000,959.164,2831.882,1005.000,2828.000C1312.000,2802.000,1413.000,2537.000,1413.000,2220.000C1456.000,1253.000,123.000,0.000,123.000,0.000L0.000,0.000ZM2072.000,405.000C1849.545,403.583,1726.000,604.000,1732.000,729.000C1726.000,890.000,1859.000,1085.000,2077.000,1077.000C2221.000,1080.000,2406.000,952.000,2406.000,742.000C2400.000,523.000,2229.000,406.000,2072.000,405.000ZM2072.000,405.000M2558.000,738.000C2561.000,1047.000,2291.000,1227.000,2077.000,1230.000C1741.958,1226.920,1579.000,961.000,1579.000,729.000C1587.000,530.000,1739.000,269.000,2068.000,250.000C2348.000,264.000,2542.000,460.000,2558.000,738.000Z" id="c" style="fill: none; stroke-width: 4; stroke: rgb(0, 0, 0); stroke-opacity: 1;"/></defs><use href="#c" clip-path="url('#d')"/></g></g></svg>