<svg width="2822" xmlns="http://www.w3.org/2000/svg" height="2829.725" fill="none"><path d="M0.000,2815.000L125.000,2815.000L959.000,305.000L1797.000,2819.000L1923.000,2819.000L2309.000,1655.000L2698.000,2823.000L2822.000,2823.000L2822.000,2699.000L2372.000,1351.000L2248.000,1351.000L1861.000,2517.000L1021.000,0.000L899.000,0.000L0.000,2694.000L0.000,2815.000Z" style="fill: rgb(0, 0, 0); fill-opacity: 1;" class="fills"/><g class="strokes"><g class="inner-stroke-shape"><defs><clipPath id="b"><use href="#a"/></clipPath><path d="M0.000,2815.000L125.000,2815.000L959.000,305.000L1797.000,2819.000L1923.000,2819.000L2309.000,1655.000L2698.000,2823.000L2822.000,2823.000L2822.000,2699.000L2372.000,1351.000L2248.000,1351.000L1861.000,2517.000L1021.000,0.000L899.000,0.000L0.000,2694.000L0.000,2815.000Z" id="a" style="fill: none; stroke-width: 4; stroke: rgb(0, 0, 0); stroke-opacity: 1;"/></defs><use href="#a" clip-path="url('#b')"/></g></g><path d="M0.000,0.000L0.000,124.000C0.000,124.000,1245.000,1305.000,1287.000,2228.000C1233.000,2683.000,944.000,2696.000,944.000,2696.000C944.000,2696.000,455.000,2679.000,434.000,1816.000C388.000,1817.000,310.000,1816.000,310.000,1816.000C310.000,1816.000,310.000,1863.000,310.000,1908.000C302.000,2651.000,712.000,2831.000,873.000,2828.000C923.657,2828.000,959.164,2831.882,1005.000,2828.000C1312.000,2802.000,1413.000,2537.000,1413.000,2220.000C1456.000,1253.000,123.000,0.000,123.000,0.000L0.000,0.000ZM2072.000,405.000C1849.545,403.583,1726.000,604.000,1732.000,729.000C1726.000,890.000,1859.000,1085.000,2077.000,1077.000C2221.000,1080.000,2406.000,952.000,2406.000,742.000C2400.000,523.000,2229.000,406.000,2072.000,405.000ZM2072.000,405.000M2558.000,738.000C2561.000,1047.000,2291.000,1227.000,2077.000,1230.000C1741.958,1226.920,1579.000,961.000,1579.000,729.000C1587.000,530.000,1739.000,269.000,2068.000,250.000C2348.000,264.000,2542.000,460.000,2558.000,738.000Z" style="fill: rgb(0, 0, 0); fill-opacity: 1;" class="fills"/><g class="strokes"><g class="inner-stroke-shape"><defs><clipPath id="d"><use href="#c"/></clipPath><path d="M0.000,0.000L0.000,124.000C0.000,124.000,1245.000,1305.000,1287.000,2228.000C1233.000,2683.000,944.000,2696.000,944.000,2696.000C944.000,2696.000,455.000,2679.000,434.000,1816.000C388.000,1817.000,310.000,1816.000,310.000,1816.000C310.000,1816.000,310.000,1863.000,310.000,1908.000C302.000,2651.000,712.000,2831.000,873.000,2828.000C923.657,2828.000,959.164,2831.882,1005.000,2828.000C1312.000,2802.000,1413.000,2537.000,1413.000,2220.000C1456.000,1253.000,123.000,0.000,123.000,0.000L0.000,0.000ZM2072.000,405.000C1849.545,403.583,1726.000,604.000,1732.000,729.000C1726.000,890.000,1859.000,1085.000,2077.000,1077.000C2221.000,1080.000,2406.000,952.000,2406.000,742.000C2400.000,523.000,2229.000,406.000,2072.000,405.000ZM2072.000,405.000M2558.000,738.000C2561.000,1047.000,2291.000,1227.000,2077.000,1230.000C1741.958,1226.920,1579.000,961.000,1579.000,729.000C1587.000,530.000,1739.000,269.000,2068.000,250.000C2348.000,264.000,2542.000,460.000,2558.000,738.000Z" id="c" style="fill: none; stroke-width: 4; stroke: rgb(0, 0, 0); stroke-opacity: 1;"/></defs><use href="#c" clip-path="url('#d')"/></g></g></svg>