<svg width="2862" xmlns="http://www.w3.org/2000/svg" height="2834.725" fill="none"><path d="M307.000,2013.000L432.000,2013.000L1062.000,124.000L1062.000,0.000L937.000,0.000L307.000,1892.000L307.000,2013.000ZM938.000,2820.000L1062.000,2820.000L1508.000,1480.000L1508.000,1357.000L1386.000,1357.000L938.000,2702.000L938.000,2820.000ZM1838.000,2820.000L1963.000,2820.000L2862.000,120.000L2862.000,0.000L2739.000,0.000L1838.000,2704.000L1838.000,2820.000Z" style="fill: rgb(0, 0, 0); fill-opacity: 1;" class="fills"/><g class="strokes"><g class="inner-stroke-shape"><defs><clipPath id="b"><use href="#a"/></clipPath><path d="M307.000,2013.000L432.000,2013.000L1062.000,124.000L1062.000,0.000L937.000,0.000L307.000,1892.000L307.000,2013.000ZM938.000,2820.000L1062.000,2820.000L1508.000,1480.000L1508.000,1357.000L1386.000,1357.000L938.000,2702.000L938.000,2820.000ZM1838.000,2820.000L1963.000,2820.000L2862.000,120.000L2862.000,0.000L2739.000,0.000L1838.000,2704.000L1838.000,2820.000Z" id="a" style="fill: none; stroke-width: 4; stroke: rgb(0, 0, 0); stroke-opacity: 1;"/></defs><use href="#a" clip-path="url('#b')"/></g></g><path d="M0.000,5.000L0.000,129.000C0.000,129.000,1245.000,1310.000,1287.000,2233.000C1233.000,2688.000,944.000,2701.000,944.000,2701.000C944.000,2701.000,455.000,2684.000,434.000,1821.000C388.000,1822.000,310.000,1821.000,310.000,1821.000C310.000,1821.000,310.000,1868.000,310.000,1913.000C302.000,2656.000,712.000,2836.000,873.000,2833.000C923.657,2833.000,959.164,2836.882,1005.000,2833.000C1312.000,2807.000,1413.000,2542.000,1413.000,2225.000C1456.000,1258.000,123.000,5.000,123.000,5.000L0.000,5.000ZM2072.000,410.000C1849.545,408.583,1726.000,609.000,1732.000,734.000C1726.000,895.000,1859.000,1090.000,2077.000,1082.000C2221.000,1085.000,2406.000,957.000,2406.000,747.000C2400.000,528.000,2229.000,411.000,2072.000,410.000ZM2072.000,410.000M2558.000,743.000C2561.000,1052.000,2291.000,1232.000,2077.000,1235.000C1741.958,1231.920,1579.000,966.000,1579.000,734.000C1587.000,535.000,1739.000,274.000,2068.000,255.000C2348.000,269.000,2542.000,465.000,2558.000,743.000Z" style="fill: rgb(0, 0, 0); fill-opacity: 1;" class="fills"/><g class="strokes"><g class="inner-stroke-shape"><defs><clipPath id="d"><use href="#c"/></clipPath><path d="M0.000,5.000L0.000,129.000C0.000,129.000,1245.000,1310.000,1287.000,2233.000C1233.000,2688.000,944.000,2701.000,944.000,2701.000C944.000,2701.000,455.000,2684.000,434.000,1821.000C388.000,1822.000,310.000,1821.000,310.000,1821.000C310.000,1821.000,310.000,1868.000,310.000,1913.000C302.000,2656.000,712.000,2836.000,873.000,2833.000C923.657,2833.000,959.164,2836.882,1005.000,2833.000C1312.000,2807.000,1413.000,2542.000,1413.000,2225.000C1456.000,1258.000,123.000,5.000,123.000,5.000L0.000,5.000ZM2072.000,410.000C1849.545,408.583,1726.000,609.000,1732.000,734.000C1726.000,895.000,1859.000,1090.000,2077.000,1082.000C2221.000,1085.000,2406.000,957.000,2406.000,747.000C2400.000,528.000,2229.000,411.000,2072.000,410.000ZM2072.000,410.000M2558.000,743.000C2561.000,1052.000,2291.000,1232.000,2077.000,1235.000C1741.958,1231.920,1579.000,966.000,1579.000,734.000C1587.000,535.000,1739.000,274.000,2068.000,255.000C2348.000,269.000,2542.000,465.000,2558.000,743.000Z" id="c" style="fill: none; stroke-width: 4; stroke: rgb(0, 0, 0); stroke-opacity: 1;"/></defs><use href="#c" clip-path="url('#d')"/></g></g></svg>