<svg width="2847.322" xmlns="http://www.w3.org/2000/svg" height="2829.725" fill="none"><path d="M0.000,961.162C0.000,1017.162,0.000,1086.162,0.000,1086.162C0.000,1086.162,89.000,1086.162,117.000,1086.162C772.000,1078.162,311.000,224.162,710.000,133.162C800.000,139.162,963.000,344.162,1122.000,697.162C1452.000,1398.162,1833.000,2511.162,2205.000,2580.162C2253.000,2588.162,2280.719,2588.521,2323.000,2587.162C2348.827,2586.195,2370.000,2586.162,2407.000,2586.162C2661.000,2545.162,2737.000,2285.162,2800.057,1977.710C2887.000,1427.162,2826.500,293.662,2831.000,214.162C2822.500,214.162,2738.000,215.162,2706.500,214.162C2707.000,556.162,2724.027,1184.684,2715.000,1402.162C2693.000,1932.162,2608.000,2387.162,2322.000,2456.162C1786.000,2330.162,1368.000,421.162,886.000,36.162C830.604,-8.086,757.284,1.327,706.000,0.162C454.375,-5.557,392.000,140.162,384.000,448.162C377.269,707.308,343.375,968.490,0.000,961.162ZM0.000,961.162" style="fill: rgb(0, 0, 0); fill-opacity: 1;" class="fills"/><g class="strokes"><g class="inner-stroke-shape"><defs><clipPath id="b"><use href="#a"/></clipPath><path d="M0.000,961.162C0.000,1017.162,0.000,1086.162,0.000,1086.162C0.000,1086.162,89.000,1086.162,117.000,1086.162C772.000,1078.162,311.000,224.162,710.000,133.162C800.000,139.162,963.000,344.162,1122.000,697.162C1452.000,1398.162,1833.000,2511.162,2205.000,2580.162C2253.000,2588.162,2280.719,2588.521,2323.000,2587.162C2348.827,2586.195,2370.000,2586.162,2407.000,2586.162C2661.000,2545.162,2737.000,2285.162,2800.057,1977.710C2887.000,1427.162,2826.500,293.662,2831.000,214.162C2822.500,214.162,2738.000,215.162,2706.500,214.162C2707.000,556.162,2724.027,1184.684,2715.000,1402.162C2693.000,1932.162,2608.000,2387.162,2322.000,2456.162C1786.000,2330.162,1368.000,421.162,886.000,36.162C830.604,-8.086,757.284,1.327,706.000,0.162C454.375,-5.557,392.000,140.162,384.000,448.162C377.269,707.308,343.375,968.490,0.000,961.162ZM0.000,961.162" id="a" style="fill: none; stroke-width: 4; stroke: rgb(0, 0, 0); stroke-opacity: 1;"/></defs><use href="#a" clip-path="url('#b')"/></g></g><path d="M0.000,0.000L0.000,124.000C0.000,124.000,1245.000,1305.000,1287.000,2228.000C1233.000,2683.000,944.000,2696.000,944.000,2696.000C944.000,2696.000,455.000,2679.000,434.000,1816.000C388.000,1817.000,310.000,1816.000,310.000,1816.000C310.000,1816.000,310.000,1863.000,310.000,1908.000C302.000,2651.000,712.000,2831.000,873.000,2828.000C923.657,2828.000,959.164,2831.882,1005.000,2828.000C1312.000,2802.000,1413.000,2537.000,1413.000,2220.000C1456.000,1253.000,123.000,0.000,123.000,0.000L0.000,0.000ZM2072.000,405.000C1849.545,403.583,1726.000,604.000,1732.000,729.000C1726.000,890.000,1859.000,1085.000,2077.000,1077.000C2221.000,1080.000,2406.000,952.000,2406.000,742.000C2400.000,523.000,2229.000,406.000,2072.000,405.000ZM2072.000,405.000M2558.000,738.000C2561.000,1047.000,2291.000,1227.000,2077.000,1230.000C1741.958,1226.920,1579.000,961.000,1579.000,729.000C1587.000,530.000,1739.000,269.000,2068.000,250.000C2348.000,264.000,2542.000,460.000,2558.000,738.000Z" style="fill: rgb(0, 0, 0); fill-opacity: 1;" class="fills"/><g class="strokes"><g class="inner-stroke-shape"><defs><clipPath id="d"><use href="#c"/></clipPath><path d="M0.000,0.000L0.000,124.000C0.000,124.000,1245.000,1305.000,1287.000,2228.000C1233.000,2683.000,944.000,2696.000,944.000,2696.000C944.000,2696.000,455.000,2679.000,434.000,1816.000C388.000,1817.000,310.000,1816.000,310.000,1816.000C310.000,1816.000,310.000,1863.000,310.000,1908.000C302.000,2651.000,712.000,2831.000,873.000,2828.000C923.657,2828.000,959.164,2831.882,1005.000,2828.000C1312.000,2802.000,1413.000,2537.000,1413.000,2220.000C1456.000,1253.000,123.000,0.000,123.000,0.000L0.000,0.000ZM2072.000,405.000C1849.545,403.583,1726.000,604.000,1732.000,729.000C1726.000,890.000,1859.000,1085.000,2077.000,1077.000C2221.000,1080.000,2406.000,952.000,2406.000,742.000C2400.000,523.000,2229.000,406.000,2072.000,405.000ZM2072.000,405.000M2558.000,738.000C2561.000,1047.000,2291.000,1227.000,2077.000,1230.000C1741.958,1226.920,1579.000,961.000,1579.000,729.000C1587.000,530.000,1739.000,269.000,2068.000,250.000C2348.000,264.000,2542.000,460.000,2558.000,738.000Z" id="c" style="fill: none; stroke-width: 4; stroke: rgb(0, 0, 0); stroke-opacity: 1;"/></defs><use href="#c" clip-path="url('#d')"/></g></g></svg>