<svg width="2829.725" xmlns="http://www.w3.org/2000/svg" height="2830" fill="none"><path d="M0.000,2830.000L124.000,2830.000C124.000,2830.000,1305.000,1585.000,2228.000,1543.000C2683.000,1597.000,2696.000,1886.000,2696.000,1886.000C2696.000,1886.000,2679.000,2375.000,1816.000,2396.000C1817.000,2442.000,1816.000,2520.000,1816.000,2520.000C1816.000,2520.000,1863.000,2520.000,1908.000,2520.000C2651.000,2528.000,2831.000,2118.000,2828.000,1957.000C2828.000,1906.343,2831.882,1870.836,2828.000,1825.000C2802.000,1518.000,2537.000,1417.000,2220.000,1417.000C1253.000,1374.000,0.000,2707.000,0.000,2707.000L0.000,2830.000ZM405.000,758.000C403.583,980.455,604.000,1104.000,729.000,1098.000C890.000,1104.000,1085.000,971.000,1077.000,753.000C1080.000,609.000,952.000,424.000,742.000,424.000C523.000,430.000,406.000,601.000,405.000,758.000ZM405.000,758.000M738.000,272.000C1047.000,269.000,1227.000,539.000,1230.000,753.000C1226.920,1088.042,961.000,1251.000,729.000,1251.000C530.000,1243.000,269.000,1091.000,250.000,762.000C264.000,482.000,460.000,288.000,738.000,272.000Z" style="fill: rgb(0, 0, 0); fill-opacity: 1;" class="fills"/><g class="strokes"><g class="inner-stroke-shape"><defs><clipPath id="b"><use href="#a"/></clipPath><path d="M0.000,2830.000L124.000,2830.000C124.000,2830.000,1305.000,1585.000,2228.000,1543.000C2683.000,1597.000,2696.000,1886.000,2696.000,1886.000C2696.000,1886.000,2679.000,2375.000,1816.000,2396.000C1817.000,2442.000,1816.000,2520.000,1816.000,2520.000C1816.000,2520.000,1863.000,2520.000,1908.000,2520.000C2651.000,2528.000,2831.000,2118.000,2828.000,1957.000C2828.000,1906.343,2831.882,1870.836,2828.000,1825.000C2802.000,1518.000,2537.000,1417.000,2220.000,1417.000C1253.000,1374.000,0.000,2707.000,0.000,2707.000L0.000,2830.000ZM405.000,758.000C403.583,980.455,604.000,1104.000,729.000,1098.000C890.000,1104.000,1085.000,971.000,1077.000,753.000C1080.000,609.000,952.000,424.000,742.000,424.000C523.000,430.000,406.000,601.000,405.000,758.000ZM405.000,758.000M738.000,272.000C1047.000,269.000,1227.000,539.000,1230.000,753.000C1226.920,1088.042,961.000,1251.000,729.000,1251.000C530.000,1243.000,269.000,1091.000,250.000,762.000C264.000,482.000,460.000,288.000,738.000,272.000Z" id="a" style="fill: none; stroke-width: 4; stroke: rgb(0, 0, 0); stroke-opacity: 1;"/></defs><use href="#a" clip-path="url('#b')"/></g></g><path d="M0.000,0.000L0.000,124.000C0.000,124.000,1245.000,1305.000,1287.000,2228.000C1233.000,2683.000,944.000,2696.000,944.000,2696.000C944.000,2696.000,455.000,2679.000,434.000,1816.000C388.000,1817.000,310.000,1816.000,310.000,1816.000C310.000,1816.000,310.000,1863.000,310.000,1908.000C302.000,2651.000,712.000,2831.000,873.000,2828.000C923.657,2828.000,959.164,2831.882,1005.000,2828.000C1312.000,2802.000,1413.000,2537.000,1413.000,2220.000C1456.000,1253.000,123.000,0.000,123.000,0.000L0.000,0.000ZM2072.000,405.000C1849.545,403.583,1726.000,604.000,1732.000,729.000C1726.000,890.000,1859.000,1085.000,2077.000,1077.000C2221.000,1080.000,2406.000,952.000,2406.000,742.000C2400.000,523.000,2229.000,406.000,2072.000,405.000ZM2072.000,405.000M2558.000,738.000C2561.000,1047.000,2291.000,1227.000,2077.000,1230.000C1741.958,1226.920,1579.000,961.000,1579.000,729.000C1587.000,530.000,1739.000,269.000,2068.000,250.000C2348.000,264.000,2542.000,460.000,2558.000,738.000Z" style="fill: rgb(0, 0, 0); fill-opacity: 1;" class="fills"/><g class="strokes"><g class="inner-stroke-shape"><defs><clipPath id="d"><use href="#c"/></clipPath><path d="M0.000,0.000L0.000,124.000C0.000,124.000,1245.000,1305.000,1287.000,2228.000C1233.000,2683.000,944.000,2696.000,944.000,2696.000C944.000,2696.000,455.000,2679.000,434.000,1816.000C388.000,1817.000,310.000,1816.000,310.000,1816.000C310.000,1816.000,310.000,1863.000,310.000,1908.000C302.000,2651.000,712.000,2831.000,873.000,2828.000C923.657,2828.000,959.164,2831.882,1005.000,2828.000C1312.000,2802.000,1413.000,2537.000,1413.000,2220.000C1456.000,1253.000,123.000,0.000,123.000,0.000L0.000,0.000ZM2072.000,405.000C1849.545,403.583,1726.000,604.000,1732.000,729.000C1726.000,890.000,1859.000,1085.000,2077.000,1077.000C2221.000,1080.000,2406.000,952.000,2406.000,742.000C2400.000,523.000,2229.000,406.000,2072.000,405.000ZM2072.000,405.000M2558.000,738.000C2561.000,1047.000,2291.000,1227.000,2077.000,1230.000C1741.958,1226.920,1579.000,961.000,1579.000,729.000C1587.000,530.000,1739.000,269.000,2068.000,250.000C2348.000,264.000,2542.000,460.000,2558.000,738.000Z" id="c" style="fill: none; stroke-width: 4; stroke: rgb(0, 0, 0); stroke-opacity: 1;"/></defs><use href="#c" clip-path="url('#d')"/></g></g></svg>