<svg width="2850" xmlns="http://www.w3.org/2000/svg" height="2829.725" fill="none"><path d="M128.000,0.000L128.000,124.000C128.000,124.000,1373.000,1305.000,1415.000,2228.000C1361.000,2683.000,1072.000,2696.000,1072.000,2696.000C1072.000,2696.000,583.000,2679.000,562.000,1816.000C516.000,1817.000,438.000,1816.000,438.000,1816.000C438.000,1816.000,438.000,1863.000,438.000,1908.000C430.000,2651.000,840.000,2831.000,1001.000,2828.000C1051.657,2828.000,1087.164,2831.882,1133.000,2828.000C1440.000,2802.000,1541.000,2537.000,1541.000,2220.000C1584.000,1253.000,251.000,0.000,251.000,0.000L128.000,0.000ZM2200.000,405.000C1977.545,403.583,1854.000,604.000,1860.000,729.000C1854.000,890.000,1987.000,1085.000,2205.000,1077.000C2349.000,1080.000,2534.000,952.000,2534.000,742.000C2528.000,523.000,2357.000,406.000,2200.000,405.000ZM2200.000,405.000M2686.000,738.000C2689.000,1047.000,2419.000,1227.000,2205.000,1230.000C1869.958,1226.920,1707.000,961.000,1707.000,729.000C1715.000,530.000,1867.000,269.000,2196.000,250.000C2476.000,264.000,2670.000,460.000,2686.000,738.000Z" style="fill: rgb(0, 0, 0); fill-opacity: 1;" class="fills"/><g class="strokes"><g class="inner-stroke-shape"><defs><clipPath id="b"><use href="#a"/></clipPath><path d="M128.000,0.000L128.000,124.000C128.000,124.000,1373.000,1305.000,1415.000,2228.000C1361.000,2683.000,1072.000,2696.000,1072.000,2696.000C1072.000,2696.000,583.000,2679.000,562.000,1816.000C516.000,1817.000,438.000,1816.000,438.000,1816.000C438.000,1816.000,438.000,1863.000,438.000,1908.000C430.000,2651.000,840.000,2831.000,1001.000,2828.000C1051.657,2828.000,1087.164,2831.882,1133.000,2828.000C1440.000,2802.000,1541.000,2537.000,1541.000,2220.000C1584.000,1253.000,251.000,0.000,251.000,0.000L128.000,0.000ZM2200.000,405.000C1977.545,403.583,1854.000,604.000,1860.000,729.000C1854.000,890.000,1987.000,1085.000,2205.000,1077.000C2349.000,1080.000,2534.000,952.000,2534.000,742.000C2528.000,523.000,2357.000,406.000,2200.000,405.000ZM2200.000,405.000M2686.000,738.000C2689.000,1047.000,2419.000,1227.000,2205.000,1230.000C1869.958,1226.920,1707.000,961.000,1707.000,729.000C1715.000,530.000,1867.000,269.000,2196.000,250.000C2476.000,264.000,2670.000,460.000,2686.000,738.000Z" id="a" style="fill: none; stroke-width: 4; stroke: rgb(0, 0, 0); stroke-opacity: 1;"/></defs><use href="#a" clip-path="url('#b')"/></g></g><path d="M0.000,1785.000L0.000,1935.000L2850.000,1935.000L2850.000,1785.000L0.000,1785.000ZM0.000,2234.000L0.000,2384.000L2850.000,2384.000L2850.000,2234.000L0.000,2234.000Z" style="fill: rgb(0, 0, 0); fill-opacity: 1;" class="fills"/><g class="strokes"><g class="inner-stroke-shape"><defs><clipPath id="d"><use href="#c"/></clipPath><path d="M0.000,1785.000L0.000,1935.000L2850.000,1935.000L2850.000,1785.000L0.000,1785.000ZM0.000,2234.000L0.000,2384.000L2850.000,2384.000L2850.000,2234.000L0.000,2234.000Z" id="c" style="fill: none; stroke-width: 4; stroke: rgb(0, 0, 0); stroke-opacity: 1;"/></defs><use href="#c" clip-path="url('#d')"/></g></g></svg>