<svg width="2839.15" xmlns="http://www.w3.org/2000/svg" height="2850" fill="none"><path d="M125.646,9.000C42.313,9.000,0.646,9.000,0.646,9.000C0.646,9.000,-1.337,130.826,1.646,134.000C383.826,540.609,600.629,673.344,976.646,675.000C1430.646,677.000,1859.123,408.805,2820.646,134.000C2824.204,133.017,2820.646,9.000,2820.646,9.000C2820.646,9.000,2779.979,9.000,2698.646,9.000C1742.646,298.000,1373.130,512.053,982.245,540.271C742.646,549.000,489.646,415.000,125.646,9.000ZM1363.646,1367.000C1364.646,1448.000,1362.646,1489.000,1362.646,1489.000C1362.646,1489.000,1407.646,1489.000,1486.646,1489.000C1716.646,1381.000,1915.646,1345.000,2028.646,1345.000C2437.646,1367.000,2704.646,1653.875,2704.646,1932.000C2636.646,2481.000,1916.646,2758.000,1025.646,2707.000C985.646,2707.000,915.646,2707.000,915.646,2707.000C915.646,2707.000,915.646,2799.000,915.646,2832.000C1939.646,2889.000,2814.646,2655.000,2838.646,1931.000C2855.646,1415.000,2439.646,1212.000,2031.646,1218.000C1773.646,1212.000,1519.115,1282.234,1363.646,1367.000Z" style="fill: rgb(0, 0, 0); fill-opacity: 1;" class="fills"/><g class="strokes"><g class="inner-stroke-shape"><defs><clipPath id="b"><use href="#a"/></clipPath><path d="M125.646,9.000C42.313,9.000,0.646,9.000,0.646,9.000C0.646,9.000,-1.337,130.826,1.646,134.000C383.826,540.609,600.629,673.344,976.646,675.000C1430.646,677.000,1859.123,408.805,2820.646,134.000C2824.204,133.017,2820.646,9.000,2820.646,9.000C2820.646,9.000,2779.979,9.000,2698.646,9.000C1742.646,298.000,1373.130,512.053,982.245,540.271C742.646,549.000,489.646,415.000,125.646,9.000ZM1363.646,1367.000C1364.646,1448.000,1362.646,1489.000,1362.646,1489.000C1362.646,1489.000,1407.646,1489.000,1486.646,1489.000C1716.646,1381.000,1915.646,1345.000,2028.646,1345.000C2437.646,1367.000,2704.646,1653.875,2704.646,1932.000C2636.646,2481.000,1916.646,2758.000,1025.646,2707.000C985.646,2707.000,915.646,2707.000,915.646,2707.000C915.646,2707.000,915.646,2799.000,915.646,2832.000C1939.646,2889.000,2814.646,2655.000,2838.646,1931.000C2855.646,1415.000,2439.646,1212.000,2031.646,1218.000C1773.646,1212.000,1519.115,1282.234,1363.646,1367.000Z" id="a" style="fill: none; stroke-width: 4; stroke: rgb(0, 0, 0); stroke-opacity: 1;"/></defs><use href="#a" clip-path="url('#b')"/></g></g><path d="M1056.646,0.000L906.646,0.000L906.646,2850.000L1056.646,2850.000L1056.646,0.000ZM607.646,0.000L457.646,0.000L457.646,2850.000L607.646,2850.000L607.646,0.000Z" style="fill: rgb(0, 0, 0); fill-opacity: 1;" class="fills"/><g class="strokes"><g class="inner-stroke-shape"><defs><clipPath id="d"><use href="#c"/></clipPath><path d="M1056.646,0.000L906.646,0.000L906.646,2850.000L1056.646,2850.000L1056.646,0.000ZM607.646,0.000L457.646,0.000L457.646,2850.000L607.646,2850.000L607.646,0.000Z" id="c" style="fill: none; stroke-width: 4; stroke: rgb(0, 0, 0); stroke-opacity: 1;"/></defs><use href="#c" clip-path="url('#d')"/></g></g></svg>