<svg width="2822" xmlns="http://www.w3.org/2000/svg" height="2850" fill="none"><path d="M0.000,2827.000L125.000,2827.000L959.000,317.000L1797.000,2831.000L1923.000,2831.000L2309.000,1667.000L2698.000,2835.000L2822.000,2835.000L2822.000,2711.000L2372.000,1363.000L2248.000,1363.000L1861.000,2529.000L1021.000,12.000L899.000,12.000L0.000,2706.000L0.000,2827.000Z" style="fill: rgb(0, 0, 0); fill-opacity: 1;" class="fills"/><g class="strokes"><g class="inner-stroke-shape"><defs><clipPath id="b"><use href="#a"/></clipPath><path d="M0.000,2827.000L125.000,2827.000L959.000,317.000L1797.000,2831.000L1923.000,2831.000L2309.000,1667.000L2698.000,2835.000L2822.000,2835.000L2822.000,2711.000L2372.000,1363.000L2248.000,1363.000L1861.000,2529.000L1021.000,12.000L899.000,12.000L0.000,2706.000L0.000,2827.000Z" id="a" style="fill: none; stroke-width: 4; stroke: rgb(0, 0, 0); stroke-opacity: 1;"/></defs><use href="#a" clip-path="url('#b')"/></g></g><path d="M1035.000,0.000L885.000,0.000L885.000,2850.000L1035.000,2850.000L1035.000,0.000ZM586.000,0.000L436.000,0.000L436.000,2850.000L586.000,2850.000L586.000,0.000Z" style="fill: rgb(0, 0, 0); fill-opacity: 1;" class="fills"/><g class="strokes"><g class="inner-stroke-shape"><defs><clipPath id="d"><use href="#c"/></clipPath><path d="M1035.000,0.000L885.000,0.000L885.000,2850.000L1035.000,2850.000L1035.000,0.000ZM586.000,0.000L436.000,0.000L436.000,2850.000L586.000,2850.000L586.000,0.000Z" id="c" style="fill: none; stroke-width: 4; stroke: rgb(0, 0, 0); stroke-opacity: 1;"/></defs><use href="#c" clip-path="url('#d')"/></g></g></svg>