<svg width="2555" xmlns="http://www.w3.org/2000/svg" height="2850" fill="none"><path d="M0.000,2026.500L125.000,2026.500L755.000,137.500L755.000,13.500L630.000,13.500L0.000,1905.500L0.000,2026.500ZM631.000,2833.500L755.000,2833.500L1201.000,1493.500L1201.000,1370.500L1079.000,1370.500L631.000,2715.500L631.000,2833.500ZM1531.000,2833.500L1656.000,2833.500L2555.000,133.500L2555.000,13.500L2432.000,13.500L1531.000,2717.500L1531.000,2833.500Z" style="fill: rgb(0, 0, 0); fill-opacity: 1;" class="fills"/><g class="strokes"><g class="inner-stroke-shape"><defs><clipPath id="b"><use href="#a"/></clipPath><path d="M0.000,2026.500L125.000,2026.500L755.000,137.500L755.000,13.500L630.000,13.500L0.000,1905.500L0.000,2026.500ZM631.000,2833.500L755.000,2833.500L1201.000,1493.500L1201.000,1370.500L1079.000,1370.500L631.000,2715.500L631.000,2833.500ZM1531.000,2833.500L1656.000,2833.500L2555.000,133.500L2555.000,13.500L2432.000,13.500L1531.000,2717.500L1531.000,2833.500Z" id="a" style="fill: none; stroke-width: 4; stroke: rgb(0, 0, 0); stroke-opacity: 1;"/></defs><use href="#a" clip-path="url('#b')"/></g></g><path d="M756.500,0.000L606.500,0.000L606.500,2850.000L756.500,2850.000L756.500,0.000ZM307.500,0.000L157.500,0.000L157.500,2850.000L307.500,2850.000L307.500,0.000Z" style="fill: rgb(0, 0, 0); fill-opacity: 1;" class="fills"/><g class="strokes"><g class="inner-stroke-shape"><defs><clipPath id="d"><use href="#c"/></clipPath><path d="M756.500,0.000L606.500,0.000L606.500,2850.000L756.500,2850.000L756.500,0.000ZM307.500,0.000L157.500,0.000L157.500,2850.000L307.500,2850.000L307.500,0.000Z" id="c" style="fill: none; stroke-width: 4; stroke: rgb(0, 0, 0); stroke-opacity: 1;"/></defs><use href="#c" clip-path="url('#d')"/></g></g></svg>