<svg width="2847.322" xmlns="http://www.w3.org/2000/svg" height="2850" fill="none"><path d="M0.000,1222.000C0.000,1278.000,0.000,1347.000,0.000,1347.000C0.000,1347.000,89.000,1347.000,117.000,1347.000C772.000,1339.000,311.000,485.000,710.000,394.000C800.000,400.000,963.000,605.000,1122.000,958.000C1452.000,1659.000,1833.000,2772.000,2205.000,2841.000C2253.000,2849.000,2280.719,2849.359,2323.000,2848.000C2348.827,2847.034,2370.000,2847.000,2407.000,2847.000C2661.000,2806.000,2737.000,2546.000,2800.057,2238.548C2887.000,1688.000,2826.500,554.500,2831.000,475.000C2822.500,475.000,2738.000,476.000,2706.500,475.000C2707.000,817.000,2724.027,1445.522,2715.000,1663.000C2693.000,2193.000,2608.000,2648.000,2322.000,2717.000C1786.000,2591.000,1368.000,682.000,886.000,297.000C830.604,252.752,757.284,262.166,706.000,261.000C454.375,255.281,392.000,401.000,384.000,709.000C377.269,968.146,343.375,1229.328,0.000,1222.000ZM0.000,1222.000" style="fill: rgb(0, 0, 0); fill-opacity: 1;" class="fills"/><g class="strokes"><g class="inner-stroke-shape"><defs><clipPath id="b"><use href="#a"/></clipPath><path d="M0.000,1222.000C0.000,1278.000,0.000,1347.000,0.000,1347.000C0.000,1347.000,89.000,1347.000,117.000,1347.000C772.000,1339.000,311.000,485.000,710.000,394.000C800.000,400.000,963.000,605.000,1122.000,958.000C1452.000,1659.000,1833.000,2772.000,2205.000,2841.000C2253.000,2849.000,2280.719,2849.359,2323.000,2848.000C2348.827,2847.034,2370.000,2847.000,2407.000,2847.000C2661.000,2806.000,2737.000,2546.000,2800.057,2238.548C2887.000,1688.000,2826.500,554.500,2831.000,475.000C2822.500,475.000,2738.000,476.000,2706.500,475.000C2707.000,817.000,2724.027,1445.522,2715.000,1663.000C2693.000,2193.000,2608.000,2648.000,2322.000,2717.000C1786.000,2591.000,1368.000,682.000,886.000,297.000C830.604,252.752,757.284,262.166,706.000,261.000C454.375,255.281,392.000,401.000,384.000,709.000C377.269,968.146,343.375,1229.328,0.000,1222.000ZM0.000,1222.000" id="a" style="fill: none; stroke-width: 4; stroke: rgb(0, 0, 0); stroke-opacity: 1;"/></defs><use href="#a" clip-path="url('#b')"/></g></g><path d="M1026.000,0.000L876.000,0.000L876.000,2850.000L1026.000,2850.000L1026.000,0.000ZM577.000,0.000L427.000,0.000L427.000,2850.000L577.000,2850.000L577.000,0.000Z" style="fill: rgb(0, 0, 0); fill-opacity: 1;" class="fills"/><g class="strokes"><g class="inner-stroke-shape"><defs><clipPath id="d"><use href="#c"/></clipPath><path d="M1026.000,0.000L876.000,0.000L876.000,2850.000L1026.000,2850.000L1026.000,0.000ZM577.000,0.000L427.000,0.000L427.000,2850.000L577.000,2850.000L577.000,0.000Z" id="c" style="fill: none; stroke-width: 4; stroke: rgb(0, 0, 0); stroke-opacity: 1;"/></defs><use href="#c" clip-path="url('#d')"/></g></g></svg>