<svg width="2829.725" xmlns="http://www.w3.org/2000/svg" height="2881" fill="none"><path d="M0.000,2881.000L124.000,2881.000C124.000,2881.000,1305.000,1636.000,2228.000,1594.000C2683.000,1648.000,2696.000,1937.000,2696.000,1937.000C2696.000,1937.000,2679.000,2426.000,1816.000,2447.000C1817.000,2493.000,1816.000,2571.000,1816.000,2571.000C1816.000,2571.000,1863.000,2571.000,1908.000,2571.000C2651.000,2579.000,2831.000,2169.000,2828.000,2008.000C2828.000,1957.343,2831.882,1921.836,2828.000,1876.000C2802.000,1569.000,2537.000,1468.000,2220.000,1468.000C1253.000,1425.000,0.000,2758.000,0.000,2758.000L0.000,2881.000ZM405.000,809.000C403.583,1031.455,604.000,1155.000,729.000,1149.000C890.000,1155.000,1085.000,1022.000,1077.000,804.000C1080.000,660.000,952.000,475.000,742.000,475.000C523.000,481.000,406.000,652.000,405.000,809.000ZM405.000,809.000M738.000,323.000C1047.000,320.000,1227.000,590.000,1230.000,804.000C1226.920,1139.042,961.000,1302.000,729.000,1302.000C530.000,1294.000,269.000,1142.000,250.000,813.000C264.000,533.000,460.000,339.000,738.000,323.000Z" style="fill: rgb(0, 0, 0); fill-opacity: 1;" class="fills"/><g class="strokes"><g class="inner-stroke-shape"><defs><clipPath id="b"><use href="#a"/></clipPath><path d="M0.000,2881.000L124.000,2881.000C124.000,2881.000,1305.000,1636.000,2228.000,1594.000C2683.000,1648.000,2696.000,1937.000,2696.000,1937.000C2696.000,1937.000,2679.000,2426.000,1816.000,2447.000C1817.000,2493.000,1816.000,2571.000,1816.000,2571.000C1816.000,2571.000,1863.000,2571.000,1908.000,2571.000C2651.000,2579.000,2831.000,2169.000,2828.000,2008.000C2828.000,1957.343,2831.882,1921.836,2828.000,1876.000C2802.000,1569.000,2537.000,1468.000,2220.000,1468.000C1253.000,1425.000,0.000,2758.000,0.000,2758.000L0.000,2881.000ZM405.000,809.000C403.583,1031.455,604.000,1155.000,729.000,1149.000C890.000,1155.000,1085.000,1022.000,1077.000,804.000C1080.000,660.000,952.000,475.000,742.000,475.000C523.000,481.000,406.000,652.000,405.000,809.000ZM405.000,809.000M738.000,323.000C1047.000,320.000,1227.000,590.000,1230.000,804.000C1226.920,1139.042,961.000,1302.000,729.000,1302.000C530.000,1294.000,269.000,1142.000,250.000,813.000C264.000,533.000,460.000,339.000,738.000,323.000Z" id="a" style="fill: none; stroke-width: 4; stroke: rgb(0, 0, 0); stroke-opacity: 1;"/></defs><use href="#a" clip-path="url('#b')"/></g></g><path d="M1040.000,0.000L890.000,0.000L890.000,2850.000L1040.000,2850.000L1040.000,0.000ZM591.000,0.000L441.000,0.000L441.000,2850.000L591.000,2850.000L591.000,0.000Z" style="fill: rgb(0, 0, 0); fill-opacity: 1;" class="fills"/><g class="strokes"><g class="inner-stroke-shape"><defs><clipPath id="d"><use href="#c"/></clipPath><path d="M1040.000,0.000L890.000,0.000L890.000,2850.000L1040.000,2850.000L1040.000,0.000ZM591.000,0.000L441.000,0.000L441.000,2850.000L591.000,2850.000L591.000,0.000Z" id="c" style="fill: none; stroke-width: 4; stroke: rgb(0, 0, 0); stroke-opacity: 1;"/></defs><use href="#c" clip-path="url('#d')"/></g></g></svg>