<svg width="2850" xmlns="http://www.w3.org/2000/svg" height="2850" fill="none"><path d="M0.000,1795.000L0.000,1945.000L2850.000,1945.000L2850.000,1795.000L0.000,1795.000ZM0.000,2244.000L0.000,2394.000L2850.000,2394.000L2850.000,2244.000L0.000,2244.000Z" style="fill: rgb(0, 0, 0); fill-opacity: 1;" class="fills"/><g class="strokes"><g class="inner-stroke-shape"><defs><clipPath id="b"><use href="#a"/></clipPath><path d="M0.000,1795.000L0.000,1945.000L2850.000,1945.000L2850.000,1795.000L0.000,1795.000ZM0.000,2244.000L0.000,2394.000L2850.000,2394.000L2850.000,2244.000L0.000,2244.000Z" id="a" style="fill: none; stroke-width: 4; stroke: rgb(0, 0, 0); stroke-opacity: 1;"/></defs><use href="#a" clip-path="url('#b')"/></g></g><path d="M1082.000,0.000L932.000,0.000L932.000,2850.000L1082.000,2850.000L1082.000,0.000ZM633.000,0.000L483.000,0.000L483.000,2850.000L633.000,2850.000L633.000,0.000Z" style="fill: rgb(0, 0, 0); fill-opacity: 1;" class="fills"/><g class="strokes"><g class="inner-stroke-shape"><defs><clipPath id="d"><use href="#c"/></clipPath><path d="M1082.000,0.000L932.000,0.000L932.000,2850.000L1082.000,2850.000L1082.000,0.000ZM633.000,0.000L483.000,0.000L483.000,2850.000L633.000,2850.000L633.000,0.000Z" id="c" style="fill: none; stroke-width: 4; stroke: rgb(0, 0, 0); stroke-opacity: 1;"/></defs><use href="#c" clip-path="url('#d')"/></g></g></svg>