<svg width="2829.725" xmlns="http://www.w3.org/2000/svg" height="2558" viewBox="-389 -459 2829.725 2558" fill="none"><path d="M-389.000,2099.000L-265.000,2099.000C-265.000,2099.000,916.000,854.000,1839.000,812.000C2294.000,866.000,2307.000,1155.000,2307.000,1155.000C2307.000,1155.000,2290.000,1644.000,1427.000,1665.000C1428.000,1711.000,1427.000,1789.000,1427.000,1789.000C1427.000,1789.000,1474.000,1789.000,1519.000,1789.000C2262.000,1797.000,2442.000,1387.000,2439.000,1226.000C2439.000,1175.343,2442.882,1139.836,2439.000,1094.000C2413.000,787.000,2148.000,686.000,1831.000,686.000C864.000,643.000,-389.000,1976.000,-389.000,1976.000L-389.000,2099.000ZM16.000,27.000C14.583,249.455,215.000,373.000,340.000,367.000C501.000,373.000,696.000,240.000,688.000,22.000C691.000,-122.000,563.000,-307.000,353.000,-307.000C134.000,-301.000,17.000,-130.000,16.000,27.000ZM16.000,27.000M349.000,-459.000C658.000,-462.000,838.000,-192.000,841.000,22.000C837.920,357.042,572.000,520.000,340.000,520.000C141.000,512.000,-120.000,360.000,-139.000,31.000C-125.000,-249.000,71.000,-443.000,349.000,-459.000Z" style="fill: rgb(0, 0, 0); fill-opacity: 1;" class="fills"/><g class="strokes"><g class="inner-stroke-shape"><defs><clipPath id="b"><use href="#a"/></clipPath><path d="M-389.000,2099.000L-265.000,2099.000C-265.000,2099.000,916.000,854.000,1839.000,812.000C2294.000,866.000,2307.000,1155.000,2307.000,1155.000C2307.000,1155.000,2290.000,1644.000,1427.000,1665.000C1428.000,1711.000,1427.000,1789.000,1427.000,1789.000C1427.000,1789.000,1474.000,1789.000,1519.000,1789.000C2262.000,1797.000,2442.000,1387.000,2439.000,1226.000C2439.000,1175.343,2442.882,1139.836,2439.000,1094.000C2413.000,787.000,2148.000,686.000,1831.000,686.000C864.000,643.000,-389.000,1976.000,-389.000,1976.000L-389.000,2099.000ZM16.000,27.000C14.583,249.455,215.000,373.000,340.000,367.000C501.000,373.000,696.000,240.000,688.000,22.000C691.000,-122.000,563.000,-307.000,353.000,-307.000C134.000,-301.000,17.000,-130.000,16.000,27.000ZM16.000,27.000M349.000,-459.000C658.000,-462.000,838.000,-192.000,841.000,22.000C837.920,357.042,572.000,520.000,340.000,520.000C141.000,512.000,-120.000,360.000,-139.000,31.000C-125.000,-249.000,71.000,-443.000,349.000,-459.000Z" id="a" style="fill: none; stroke-width: 4; stroke: rgb(0, 0, 0); stroke-opacity: 1;"/></defs><use href="#a" clip-path="url('#b')"/></g></g></svg>