<svg width="2842.527" xmlns="http://www.w3.org/2000/svg" height="2839.15" fill="none"><path d="M2842.527,125.646C2842.527,42.313,2842.527,0.646,2842.527,0.646C2842.527,0.646,2720.701,-1.337,2717.527,1.646C2310.917,383.826,2178.183,600.629,2176.527,976.646C2174.527,1430.646,2442.722,1859.123,2717.527,2820.646C2718.510,2824.204,2842.527,2820.646,2842.527,2820.646C2842.527,2820.646,2842.527,2779.979,2842.527,2698.646C2553.527,1742.646,2339.473,1373.130,2311.256,982.245C2302.527,742.646,2436.527,489.646,2842.527,125.646ZM1484.527,1363.646C1403.527,1364.646,1362.527,1362.646,1362.527,1362.646C1362.527,1362.646,1362.527,1407.646,1362.527,1486.646C1470.527,1716.646,1506.527,1915.646,1506.527,2028.646C1484.527,2437.646,1197.652,2704.646,919.527,2704.646C370.527,2636.646,93.527,1916.646,144.527,1025.646C144.527,985.646,144.527,915.646,144.527,915.646C144.527,915.646,52.527,915.646,19.527,915.646C-37.473,1939.646,196.527,2814.646,920.527,2838.646C1436.527,2855.646,1639.527,2439.646,1633.527,2031.646C1639.527,1773.646,1569.292,1519.115,1484.527,1363.646Z" style="fill: rgb(0, 0, 0); fill-opacity: 1;" class="fills"/><g class="strokes"><g class="inner-stroke-shape"><defs><clipPath id="b"><use href="#a"/></clipPath><path d="M2842.527,125.646C2842.527,42.313,2842.527,0.646,2842.527,0.646C2842.527,0.646,2720.701,-1.337,2717.527,1.646C2310.917,383.826,2178.183,600.629,2176.527,976.646C2174.527,1430.646,2442.722,1859.123,2717.527,2820.646C2718.510,2824.204,2842.527,2820.646,2842.527,2820.646C2842.527,2820.646,2842.527,2779.979,2842.527,2698.646C2553.527,1742.646,2339.473,1373.130,2311.256,982.245C2302.527,742.646,2436.527,489.646,2842.527,125.646ZM1484.527,1363.646C1403.527,1364.646,1362.527,1362.646,1362.527,1362.646C1362.527,1362.646,1362.527,1407.646,1362.527,1486.646C1470.527,1716.646,1506.527,1915.646,1506.527,2028.646C1484.527,2437.646,1197.652,2704.646,919.527,2704.646C370.527,2636.646,93.527,1916.646,144.527,1025.646C144.527,985.646,144.527,915.646,144.527,915.646C144.527,915.646,52.527,915.646,19.527,915.646C-37.473,1939.646,196.527,2814.646,920.527,2838.646C1436.527,2855.646,1639.527,2439.646,1633.527,2031.646C1639.527,1773.646,1569.292,1519.115,1484.527,1363.646Z" id="a" style="fill: none; stroke-width: 4; stroke: rgb(0, 0, 0); stroke-opacity: 1;"/></defs><use href="#a" clip-path="url('#b')"/></g></g><path d="M125.646,4.977C42.313,4.977,0.646,4.977,0.646,4.977C0.646,4.977,-1.337,126.803,1.646,129.977C383.826,536.587,600.629,669.321,976.646,670.977C1430.646,672.977,1859.123,404.782,2820.646,129.977C2824.204,128.994,2820.646,4.977,2820.646,4.977C2820.646,4.977,2779.979,4.977,2698.646,4.977C1742.646,293.977,1373.130,508.031,982.245,536.248C742.646,544.977,489.646,410.977,125.646,4.977ZM1363.646,1362.977C1364.646,1443.977,1362.646,1484.977,1362.646,1484.977C1362.646,1484.977,1407.646,1484.977,1486.646,1484.977C1716.646,1376.977,1915.646,1340.977,2028.646,1340.977C2437.646,1362.977,2704.646,1649.852,2704.646,1927.977C2636.646,2476.977,1916.646,2753.977,1025.646,2702.977C985.646,2702.977,915.646,2702.977,915.646,2702.977C915.646,2702.977,915.646,2794.977,915.646,2827.977C1939.646,2884.977,2814.646,2650.977,2838.646,1926.977C2855.646,1410.977,2439.646,1207.977,2031.646,1213.977C1773.646,1207.977,1519.115,1278.212,1363.646,1362.977Z" style="fill: rgb(0, 0, 0); fill-opacity: 1;" class="fills"/><g class="strokes"><g class="inner-stroke-shape"><defs><clipPath id="d"><use href="#c"/></clipPath><path d="M125.646,4.977C42.313,4.977,0.646,4.977,0.646,4.977C0.646,4.977,-1.337,126.803,1.646,129.977C383.826,536.587,600.629,669.321,976.646,670.977C1430.646,672.977,1859.123,404.782,2820.646,129.977C2824.204,128.994,2820.646,4.977,2820.646,4.977C2820.646,4.977,2779.979,4.977,2698.646,4.977C1742.646,293.977,1373.130,508.031,982.245,536.248C742.646,544.977,489.646,410.977,125.646,4.977ZM1363.646,1362.977C1364.646,1443.977,1362.646,1484.977,1362.646,1484.977C1362.646,1484.977,1407.646,1484.977,1486.646,1484.977C1716.646,1376.977,1915.646,1340.977,2028.646,1340.977C2437.646,1362.977,2704.646,1649.852,2704.646,1927.977C2636.646,2476.977,1916.646,2753.977,1025.646,2702.977C985.646,2702.977,915.646,2702.977,915.646,2702.977C915.646,2702.977,915.646,2794.977,915.646,2827.977C1939.646,2884.977,2814.646,2650.977,2838.646,1926.977C2855.646,1410.977,2439.646,1207.977,2031.646,1213.977C1773.646,1207.977,1519.115,1278.212,1363.646,1362.977Z" id="c" style="fill: none; stroke-width: 4; stroke: rgb(0, 0, 0); stroke-opacity: 1;"/></defs><use href="#c" clip-path="url('#d')"/></g></g></svg>