<svg width="2831.196" xmlns="http://www.w3.org/2000/svg" height="2842.173" fill="none"><path d="M2831.196,128.669C2831.196,45.336,2831.196,3.669,2831.196,3.669C2831.196,3.669,2709.370,1.685,2706.196,4.669C2299.586,386.849,2166.852,603.651,2165.196,979.669C2163.196,1433.669,2431.391,1862.145,2706.196,2823.669C2707.179,2827.227,2831.196,2823.669,2831.196,2823.669C2831.196,2823.669,2831.196,2783.002,2831.196,2701.669C2542.196,1745.669,2328.142,1376.153,2299.925,985.268C2291.196,745.669,2425.196,492.669,2831.196,128.669ZM1473.196,1366.669C1392.196,1367.669,1351.196,1365.669,1351.196,1365.669C1351.196,1365.669,1351.196,1410.669,1351.196,1489.669C1459.196,1719.669,1495.196,1918.669,1495.196,2031.669C1473.196,2440.669,1186.321,2707.669,908.196,2707.669C359.196,2639.669,82.196,1919.669,133.196,1028.669C133.196,988.669,133.196,918.669,133.196,918.669C133.196,918.669,41.196,918.669,8.196,918.669C-48.804,1942.669,185.196,2817.669,909.196,2841.669C1425.196,2858.669,1628.196,2442.669,1622.196,2034.669C1628.196,1776.669,1557.961,1522.138,1473.196,1366.669Z" style="fill: rgb(0, 0, 0); fill-opacity: 1;" class="fills"/><g class="strokes"><g class="inner-stroke-shape"><defs><clipPath id="b"><use href="#a"/></clipPath><path d="M2831.196,128.669C2831.196,45.336,2831.196,3.669,2831.196,3.669C2831.196,3.669,2709.370,1.685,2706.196,4.669C2299.586,386.849,2166.852,603.651,2165.196,979.669C2163.196,1433.669,2431.391,1862.145,2706.196,2823.669C2707.179,2827.227,2831.196,2823.669,2831.196,2823.669C2831.196,2823.669,2831.196,2783.002,2831.196,2701.669C2542.196,1745.669,2328.142,1376.153,2299.925,985.268C2291.196,745.669,2425.196,492.669,2831.196,128.669ZM1473.196,1366.669C1392.196,1367.669,1351.196,1365.669,1351.196,1365.669C1351.196,1365.669,1351.196,1410.669,1351.196,1489.669C1459.196,1719.669,1495.196,1918.669,1495.196,2031.669C1473.196,2440.669,1186.321,2707.669,908.196,2707.669C359.196,2639.669,82.196,1919.669,133.196,1028.669C133.196,988.669,133.196,918.669,133.196,918.669C133.196,918.669,41.196,918.669,8.196,918.669C-48.804,1942.669,185.196,2817.669,909.196,2841.669C1425.196,2858.669,1628.196,2442.669,1622.196,2034.669C1628.196,1776.669,1557.961,1522.138,1473.196,1366.669Z" id="a" style="fill: none; stroke-width: 4; stroke: rgb(0, 0, 0); stroke-opacity: 1;"/></defs><use href="#a" clip-path="url('#b')"/></g></g><path d="M6.669,2815.000L131.669,2815.000L965.669,305.000L1803.669,2819.000L1929.669,2819.000L2315.669,1655.000L2704.669,2823.000L2828.669,2823.000L2828.669,2699.000L2378.669,1351.000L2254.669,1351.000L1867.669,2517.000L1027.669,0.000L905.669,0.000L6.669,2694.000L6.669,2815.000Z" style="fill: rgb(0, 0, 0); fill-opacity: 1;" class="fills"/><g class="strokes"><g class="inner-stroke-shape"><defs><clipPath id="d"><use href="#c"/></clipPath><path d="M6.669,2815.000L131.669,2815.000L965.669,305.000L1803.669,2819.000L1929.669,2819.000L2315.669,1655.000L2704.669,2823.000L2828.669,2823.000L2828.669,2699.000L2378.669,1351.000L2254.669,1351.000L1867.669,2517.000L1027.669,0.000L905.669,0.000L6.669,2694.000L6.669,2815.000Z" id="c" style="fill: none; stroke-width: 4; stroke: rgb(0, 0, 0); stroke-opacity: 1;"/></defs><use href="#c" clip-path="url('#d')"/></g></g></svg>